<svg width="26" height="26" viewBox="0 0 26 26" fill="none" xmlns="http://www.w3.org/2000/svg">
<path fill-rule="evenodd" clip-rule="evenodd" d="M11.0005 2C6.02993 2 2.00049 6.02944 2.00049 11C2.00049 15.9706 6.02993 20 11.0005 20C13.486 20 15.7347 18.9937 17.3644 17.364C18.9942 15.7342 20.0005 13.4856 20.0005 11C20.0005 6.02944 15.9711 2 11.0005 2ZM0.000488281 11C0.000488281 4.92487 4.92536 0 11.0005 0C17.0756 0 22.0005 4.92487 22.0005 11C22.0005 13.6771 21.0431 16.1321 19.4537 18.039L25.7076 24.2929C26.0981 24.6834 26.0981 25.3166 25.7076 25.7071C25.3171 26.0976 24.6839 26.0976 24.2934 25.7071L18.0395 19.4532C16.1326 21.0426 13.6776 22 11.0005 22C4.92536 22 0.000488281 17.0751 0.000488281 11Z" fill="#0069AB"/>
</svg>
