<svg width="24" height="25" viewBox="0 0 24 25" fill="none" xmlns="http://www.w3.org/2000/svg">
<path fill-rule="evenodd" clip-rule="evenodd" d="M16.5001 5.35319V5.57998C17.4548 5.66737 18.4017 5.78231 19.3398 5.92398C19.6871 5.97643 20.0332 6.03255 20.3781 6.0923C20.7863 6.16299 21.0598 6.55117 20.9891 6.9593C20.9184 7.36744 20.5302 7.64098 20.1221 7.57029C20.0525 7.55823 19.9829 7.54632 19.9131 7.53457L18.9077 20.6051C18.7875 22.1681 17.4842 23.375 15.9166 23.375H8.08369C6.51608 23.375 5.21276 22.1681 5.09253 20.6051L4.0871 7.53457C4.0174 7.54632 3.94774 7.55823 3.87813 7.57029C3.47 7.64098 3.08183 7.36744 3.01113 6.9593C2.94043 6.55117 3.21398 6.16299 3.62211 6.0923C3.96701 6.03255 4.31315 5.97643 4.66048 5.92398C5.59858 5.78231 6.5454 5.66737 7.50012 5.57998V5.35319C7.50012 3.78871 8.71265 2.45318 10.3156 2.40191C10.8749 2.38401 11.4365 2.375 12.0001 2.375C12.5638 2.375 13.1253 2.38401 13.6847 2.40191C15.2876 2.45318 16.5001 3.78871 16.5001 5.35319ZM10.3635 3.90114C10.9069 3.88376 11.4525 3.875 12.0001 3.875C12.5478 3.875 13.0934 3.88376 13.6367 3.90114C14.3913 3.92528 15.0001 4.55893 15.0001 5.35319V5.46582C14.0078 5.40556 13.0075 5.375 12.0001 5.375C10.9928 5.375 9.99249 5.40556 9.00012 5.46582V5.35319C9.00012 4.55893 9.6089 3.92528 10.3635 3.90114ZM10.0087 9.84618C9.9928 9.43227 9.64436 9.10963 9.23045 9.12555C8.81654 9.14147 8.49391 9.48992 8.50983 9.90382L8.85599 18.9038C8.8719 19.3177 9.22035 19.6404 9.63426 19.6244C10.0482 19.6085 10.3708 19.2601 10.3549 18.8462L10.0087 9.84618ZM15.4895 9.90382C15.5054 9.48992 15.1828 9.14147 14.7689 9.12555C14.355 9.10963 14.0065 9.43227 13.9906 9.84618L13.6444 18.8462C13.6285 19.2601 13.9512 19.6085 14.3651 19.6244C14.779 19.6404 15.1274 19.3177 15.1433 18.9038L15.4895 9.90382Z" fill="#F98080"/>
</svg>
