<svg width="24" height="25" viewBox="0 0 24 25" fill="none" xmlns="http://www.w3.org/2000/svg">
<path d="M5.53803 20.3946C4.92803 20.3946 4.35803 20.1846 3.94803 19.7946C3.42803 19.3046 3.17803 18.5646 3.26803 17.7646L3.63803 14.5246C3.70803 13.9146 4.07803 13.1046 4.50803 12.6646L12.718 3.97456C14.768 1.80456 16.908 1.74456 19.078 3.79456C21.248 5.84456 21.308 7.98456 19.258 10.1546L11.048 18.8446C10.628 19.2946 9.84803 19.7146 9.23803 19.8146L6.01803 20.3646C5.84803 20.3746 5.69803 20.3946 5.53803 20.3946ZM15.928 3.78456C15.158 3.78456 14.488 4.26456 13.808 4.98456L5.59803 13.6846C5.39803 13.8946 5.16803 14.3946 5.12803 14.6846L4.75803 17.9246C4.71803 18.2546 4.79803 18.5246 4.97803 18.6946C5.15803 18.8646 5.42803 18.9246 5.75803 18.8746L8.97803 18.3246C9.26803 18.2746 9.74803 18.0146 9.94803 17.8046L18.158 9.11456C19.398 7.79456 19.848 6.57456 18.038 4.87456C17.238 4.10456 16.548 3.78456 15.928 3.78456Z" fill="#026AA2"/>
<path d="M17.3443 11.8258C17.3243 11.8258 17.2943 11.8258 17.2743 11.8258C14.1543 11.5158 11.6443 9.14583 11.1643 6.04583C11.1043 5.63583 11.3843 5.25583 11.7943 5.18583C12.2043 5.12583 12.5843 5.40583 12.6543 5.81583C13.0343 8.23583 14.9943 10.0958 17.4343 10.3358C17.8443 10.3758 18.1443 10.7458 18.1043 11.1558C18.0543 11.5358 17.7243 11.8258 17.3443 11.8258Z" fill="#026AA2"/>
<path d="M21 23.625H3C2.59 23.625 2.25 23.285 2.25 22.875C2.25 22.465 2.59 22.125 3 22.125H21C21.41 22.125 21.75 22.465 21.75 22.875C21.75 23.285 21.41 23.625 21 23.625Z" fill="#026AA2"/>
</svg>
