<svg width="5" height="19" viewBox="0 0 5 19" fill="none" xmlns="http://www.w3.org/2000/svg">
<path d="M2.5 4.375C1.39543 4.375 0.5 3.47957 0.5 2.375C0.5 1.27043 1.39543 0.375 2.5 0.375C3.60457 0.375 4.5 1.27043 4.5 2.375C4.5 3.47957 3.60457 4.375 2.5 4.375Z" fill="#0069AB"/>
<path d="M2.5 11.375C1.39543 11.375 0.5 10.4796 0.5 9.375C0.5 8.27043 1.39543 7.375 2.5 7.375C3.60457 7.375 4.5 8.27043 4.5 9.375C4.5 10.4796 3.60457 11.375 2.5 11.375Z" fill="#0069AB"/>
<path d="M2.5 18.375C1.39543 18.375 0.5 17.4796 0.5 16.375C0.5 15.2704 1.39543 14.375 2.5 14.375C3.60457 14.375 4.5 15.2704 4.5 16.375C4.5 17.4796 3.60457 18.375 2.5 18.375Z" fill="#0069AB"/>
</svg>
