<svg width="40" height="41" viewBox="0 0 40 41" fill="none" xmlns="http://www.w3.org/2000/svg">
<path d="M30.0058 13.8082C29.9558 13.8082 29.9225 13.8082 29.8725 13.8082H29.7892C26.6391 13.7082 24.2891 11.2748 24.2891 8.27473C24.2891 5.208 26.7891 2.72461 29.8392 2.72461C32.8892 2.72461 35.3893 5.22466 35.3893 8.27473C35.3726 11.2915 33.0226 13.7248 30.0225 13.8248C30.0225 13.8082 30.0225 13.8082 30.0058 13.8082ZM29.8392 5.208C28.1558 5.208 26.7891 6.5747 26.7891 8.25807C26.7891 9.9081 28.0725 11.2415 29.7225 11.3081C29.7392 11.2915 29.8725 11.2915 30.0225 11.3081C31.6392 11.2248 32.8892 9.89144 32.9059 8.25807C32.9059 6.5747 31.5392 5.208 29.8392 5.208Z" fill="#14CC26"/>
<path d="M30.0117 26.091C29.3617 26.091 28.7117 26.041 28.0616 25.9243C27.3783 25.8077 26.9283 25.1576 27.045 24.4743C27.1616 23.791 27.8116 23.3409 28.495 23.4576C30.545 23.8076 32.7117 23.4243 34.1618 22.4576C34.9451 21.9409 35.3618 21.2909 35.3618 20.6409C35.3618 19.9909 34.9285 19.3575 34.1618 18.8408C32.7117 17.8742 30.5117 17.4908 28.445 17.8575C27.7616 17.9908 27.1116 17.5242 26.995 16.8408C26.8783 16.1575 27.3283 15.5075 28.0116 15.3908C30.7284 14.9074 33.5451 15.4241 35.5451 16.7575C37.0118 17.7408 37.8619 19.1409 37.8619 20.6409C37.8619 22.1242 37.0285 23.541 35.5451 24.541C34.0284 25.541 32.0617 26.091 30.0117 26.091Z" fill="#14CC26"/>
<path d="M9.93918 13.8092C9.92251 13.8092 9.90584 13.8092 9.90584 13.8092C6.90578 13.7092 4.55573 11.2758 4.53906 8.27576C4.53906 5.20903 7.03912 2.70898 10.0892 2.70898C13.1392 2.70898 15.6393 5.20904 15.6393 8.2591C15.6393 11.2758 13.2892 13.7092 10.2892 13.8092L9.93918 12.5592L10.0558 13.8092C10.0225 13.8092 9.97251 13.8092 9.93918 13.8092ZM10.1058 11.3092C10.2058 11.3092 10.2892 11.3092 10.3892 11.3258C11.8726 11.2592 13.1726 9.9258 13.1726 8.27576C13.1726 6.59239 11.8059 5.22569 10.1225 5.22569C8.43915 5.22569 7.07245 6.59239 7.07245 8.27576C7.07245 9.90913 8.33914 11.2258 9.95584 11.3258C9.97251 11.3092 10.0392 11.3092 10.1058 11.3092Z" fill="#14CC26"/>
<path d="M9.9361 26.091C7.88606 26.091 5.91935 25.541 4.40265 24.541C2.93595 23.5576 2.08594 22.1409 2.08594 20.6409C2.08594 19.1575 2.93595 17.7408 4.40265 16.7575C6.40269 15.4241 9.21942 14.9074 11.9361 15.3908C12.6195 15.5075 13.0695 16.1575 12.9528 16.8408C12.8362 17.5242 12.1862 17.9908 11.5028 17.8575C9.43609 17.4908 7.25271 17.8742 5.78602 18.8408C5.00267 19.3575 4.58599 19.9909 4.58599 20.6409C4.58599 21.2909 5.01933 21.9409 5.78602 22.4576C7.23605 23.4243 9.40276 23.8076 11.4528 23.4576C12.1361 23.3409 12.7862 23.8076 12.9028 24.4743C13.0195 25.1576 12.5695 25.8077 11.8861 25.9243C11.2361 26.041 10.5861 26.091 9.9361 26.091Z" fill="#14CC26"/>
<path d="M19.998 26.2594C19.948 26.2594 19.9147 26.2594 19.8647 26.2594H19.7814C16.6313 26.1594 14.2812 23.726 14.2812 20.7259C14.2812 17.6592 16.7813 15.1758 19.8314 15.1758C22.8814 15.1758 25.3815 17.6758 25.3815 20.7259C25.3648 23.7426 23.0148 26.176 20.0147 26.276C20.0147 26.2594 20.0147 26.2594 19.998 26.2594ZM19.8314 17.6592C18.148 17.6592 16.7813 19.0259 16.7813 20.7092C16.7813 22.3593 18.0647 23.6926 19.7147 23.7593C19.7314 23.7426 19.8647 23.7426 20.0147 23.7593C21.6314 23.676 22.8814 22.3426 22.8981 20.7092C22.8981 19.0425 21.5314 17.6592 19.8314 17.6592Z" fill="#14CC26"/>
<path d="M20.0075 38.5584C18.0074 38.5584 16.0074 38.0418 14.4573 36.9918C12.9906 36.0084 12.1406 34.6084 12.1406 33.1083C12.1406 31.625 12.974 30.1916 14.4573 29.2082C17.5741 27.1415 22.4575 27.1415 25.5576 29.2082C27.0243 30.1916 27.8743 31.5916 27.8743 33.0917C27.8743 34.575 27.0409 36.0084 25.5576 36.9918C24.0075 38.0251 22.0075 38.5584 20.0075 38.5584ZM15.8407 31.3083C15.0574 31.825 14.6407 32.475 14.6407 33.125C14.6407 33.775 15.074 34.4084 15.8407 34.925C18.0908 36.4417 21.9075 36.4417 24.1575 34.925C24.9409 34.4084 25.3576 33.7584 25.3576 33.1083C25.3576 32.4583 24.9242 31.825 24.1575 31.3083C21.9242 29.7916 18.1074 29.8083 15.8407 31.3083Z" fill="#14CC26"/>
</svg>
