<svg width="25" height="25" viewBox="0 0 25 25" fill="none" xmlns="http://www.w3.org/2000/svg">
<path d="M16.2578 14.3809H15.4678L15.1878 14.1109C16.1678 12.9709 16.7578 11.4909 16.7578 9.88086C16.7578 6.29086 13.8478 3.38086 10.2578 3.38086C6.66781 3.38086 3.75781 6.29086 3.75781 9.88086C3.75781 13.4709 6.66781 16.3809 10.2578 16.3809C11.8678 16.3809 13.3478 15.7909 14.4878 14.8109L14.7578 15.0909V15.8809L19.7578 20.8709L21.2478 19.3809L16.2578 14.3809ZM10.2578 14.3809C7.76781 14.3809 5.75781 12.3709 5.75781 9.88086C5.75781 7.39086 7.76781 5.38086 10.2578 5.38086C12.7478 5.38086 14.7578 7.39086 14.7578 9.88086C14.7578 12.3709 12.7478 14.3809 10.2578 14.3809Z" fill="#0069AB"/>
</svg>
