<svg width="39" height="39" viewBox="0 0 39 39" fill="none" xmlns="http://www.w3.org/2000/svg">
<path d="M3.375 22.75C3.72018 22.75 4 22.4702 4 22.125C4 21.7798 3.72018 21.5 3.375 21.5C3.02982 21.5 2.75 21.7798 2.75 22.125C2.75 22.4702 3.02982 22.75 3.375 22.75Z" fill="#026AA2"/>
<path d="M5.875 22.75C6.22018 22.75 6.5 22.4702 6.5 22.125C6.5 21.7798 6.22018 21.5 5.875 21.5C5.52982 21.5 5.25 21.7798 5.25 22.125C5.25 22.4702 5.52982 22.75 5.875 22.75Z" fill="#026AA2"/>
<path d="M8.375 22.75C8.72018 22.75 9 22.4702 9 22.125C9 21.7798 8.72018 21.5 8.375 21.5C8.02982 21.5 7.75 21.7798 7.75 22.125C7.75 22.4702 8.02982 22.75 8.375 22.75Z" fill="#026AA2"/>
<path d="M30.25 39C30.5952 39 30.875 38.7202 30.875 38.375C30.875 38.0298 30.5952 37.75 30.25 37.75C29.9048 37.75 29.625 38.0298 29.625 38.375C29.625 38.7202 29.9048 39 30.25 39Z" fill="#026AA2"/>
<path d="M30.25 36.5C30.5952 36.5 30.875 36.2202 30.875 35.875C30.875 35.5298 30.5952 35.25 30.25 35.25C29.9048 35.25 29.625 35.5298 29.625 35.875C29.625 36.2202 29.9048 36.5 30.25 36.5Z" fill="#026AA2"/>
<path d="M30.25 34C30.5952 34 30.875 33.7202 30.875 33.375C30.875 33.0298 30.5952 32.75 30.25 32.75C29.9048 32.75 29.625 33.0298 29.625 33.375C29.625 33.7202 29.9048 34 30.25 34Z" fill="#026AA2"/>
<path d="M30.692 24.1833C30.4477 23.9389 30.0527 23.9389 29.8083 24.1833L27.3083 26.6833C27.0639 26.9277 27.0639 27.3227 27.3083 27.567C27.5527 27.8114 27.9477 27.8114 28.192 27.567L29.6252 26.1339V30.8752C29.6252 31.2208 29.9052 31.5002 30.2502 31.5002C30.5952 31.5002 30.8752 31.2208 30.8752 30.8752V26.1339L32.3083 27.567C32.4302 27.6889 32.5902 27.7502 32.7502 27.7502C32.9102 27.7502 33.0702 27.6889 33.192 27.567C33.4364 27.3227 33.4364 26.9277 33.192 26.6833L30.692 24.1833Z" fill="#026AA2"/>
<path d="M0.875 9.625C1.22018 9.625 1.5 9.34518 1.5 9C1.5 8.65482 1.22018 8.375 0.875 8.375C0.529822 8.375 0.25 8.65482 0.25 9C0.25 9.34518 0.529822 9.625 0.875 9.625Z" fill="#026AA2"/>
<path d="M3.375 9.625C3.72018 9.625 4 9.34518 4 9C4 8.65482 3.72018 8.375 3.375 8.375C3.02982 8.375 2.75 8.65482 2.75 9C2.75 9.34518 3.02982 9.625 3.375 9.625Z" fill="#026AA2"/>
<path d="M5.875 9.625C6.22018 9.625 6.5 9.34518 6.5 9C6.5 8.65482 6.22018 8.375 5.875 8.375C5.52982 8.375 5.25 8.65482 5.25 9C5.25 9.34518 5.52982 9.625 5.875 9.625Z" fill="#026AA2"/>
<path d="M8.375 9.62516H16.8663L15.4331 11.0583C15.1887 11.3027 15.1887 11.6977 15.4331 11.942C15.555 12.0639 15.715 12.1252 15.875 12.1252C16.035 12.1252 16.195 12.0639 16.3169 11.942L18.8169 9.44203C19.0613 9.19766 19.0613 8.80266 18.8169 8.55828L16.3169 6.05828C16.0725 5.81391 15.6775 5.81391 15.4331 6.05828C15.1887 6.30266 15.1887 6.69766 15.4331 6.94203L16.8663 8.37516H8.375C8.03 8.37516 7.75 8.65453 7.75 9.00016C7.75 9.34578 8.03 9.62516 8.375 9.62516Z" fill="#026AA2"/>
<path d="M22.125 26.5H15.875C15.53 26.5 15.25 26.7794 15.25 27.125C15.25 27.4706 15.53 27.75 15.875 27.75H22.125C22.47 27.75 22.75 27.4706 22.75 27.125C22.75 26.7794 22.47 26.5 22.125 26.5Z" fill="#026AA2"/>
<path d="M22.125 29H15.875C15.53 29 15.25 29.2794 15.25 29.625C15.25 29.9706 15.53 30.25 15.875 30.25H22.125C22.47 30.25 22.75 29.9706 22.75 29.625C22.75 29.2794 22.47 29 22.125 29Z" fill="#026AA2"/>
<path d="M22.125 31.5H15.875C15.53 31.5 15.25 31.7794 15.25 32.125C15.25 32.4706 15.53 32.75 15.875 32.75H22.125C22.47 32.75 22.75 32.4706 22.75 32.125C22.75 31.7794 22.47 31.5 22.125 31.5Z" fill="#026AA2"/>
<path d="M22.125 34H15.875C15.53 34 15.25 34.2794 15.25 34.625C15.25 34.9706 15.53 35.25 15.875 35.25H22.125C22.47 35.25 22.75 34.9706 22.75 34.625C22.75 34.2794 22.47 34 22.125 34Z" fill="#026AA2"/>
<path d="M38.9756 21.9538L38.3537 19.7775C37.9019 18.195 36.6188 17.0112 35.0056 16.6894L31.5 15.9875V15.875C31.5 15.8588 31.4919 15.845 31.4906 15.8294C32.6519 15.1588 33.5169 14.0363 33.8475 12.7025C35.0006 12.48 35.875 11.4669 35.875 10.25V5.95188C35.875 4.22813 34.7594 2.7225 33.1338 2.20938C32.2237 0.978125 30.7875 0.25 29.2469 0.25C25.3194 0.25 22.125 3.44438 22.125 7.37188V10.25C22.125 11.4669 22.9994 12.48 24.1525 12.7025C24.4837 14.0363 25.3481 15.1588 26.5094 15.8294C26.5081 15.845 26.5 15.8588 26.5 15.875V15.9875L22.995 16.6887C21.6606 16.9556 20.56 17.8162 19.9606 19H0.875C0.53 19 0.25 19.2794 0.25 19.625V38.375C0.25 38.7206 0.53 39 0.875 39H24.625C24.97 39 25.25 38.7206 25.25 38.375V22.75H38.375C38.5713 22.75 38.7556 22.6581 38.8737 22.5019C38.9919 22.345 39.03 22.1419 38.9756 21.9538ZM34 11.3263V9.17375C34.3719 9.39062 34.625 9.78938 34.625 10.25C34.625 10.7106 34.3719 11.1094 34 11.3263ZM29.2469 1.5C30.4481 1.5 31.5637 2.09687 32.23 3.09687C32.3162 3.22625 32.4475 3.31875 32.5981 3.35625C33.7919 3.65437 34.625 4.72188 34.625 5.95188V8.0975C34.2556 7.8825 33.8325 7.75 33.375 7.75C31.8969 7.75 30.4319 7.26188 29.2494 6.375L28.7494 6C28.5 5.8125 28.1525 5.83687 27.9325 6.05813L27.3831 6.6075C26.6469 7.34438 25.6675 7.75 24.625 7.75C24.1675 7.75 23.7444 7.8825 23.375 8.0975V7.37125C23.375 4.13438 26.0088 1.5 29.2469 1.5ZM23.375 10.25C23.375 9.78938 23.6281 9.39062 24 9.17375V11.3263C23.6281 11.1094 23.375 10.7106 23.375 10.25ZM25.25 11.5V8.9625C26.39 8.82562 27.4438 8.315 28.2675 7.49125L28.4338 7.325L28.5 7.37438C29.73 8.2975 31.2194 8.855 32.75 8.97563V11.5C32.75 13.5681 31.0681 15.25 29 15.25C26.9319 15.25 25.25 13.5681 25.25 11.5ZM19.5106 20.25L19.0238 21.9538C18.97 22.1425 19.0075 22.345 19.1256 22.5019C19.2444 22.6581 19.4287 22.75 19.625 22.75H24V24H1.5V20.25H19.5106ZM1.5 37.75V25.25H24V37.75H1.5ZM34.4881 21.5L33.9813 19.4737C33.8975 19.1381 33.5581 18.935 33.2231 19.0188C32.8881 19.1025 32.685 19.4419 32.7681 19.7763L33.1994 21.5H24.8006L25.2313 19.7763C25.315 19.4419 25.1112 19.1025 24.7763 19.0188C24.4425 18.9344 24.1019 19.1375 24.0181 19.4737L23.5119 21.5H20.4531L20.8475 20.12C21.1706 18.9894 22.0869 18.145 23.2394 17.9144L27.2475 17.1131C27.54 17.0544 27.75 16.7981 27.75 16.5V16.3356C28.1506 16.4394 28.5675 16.5 29 16.5C29.4325 16.5 29.8494 16.4394 30.25 16.3356V16.5C30.25 16.7981 30.46 17.0544 30.7525 17.1125L34.7606 17.9137C35.9131 18.1444 36.8294 18.9894 37.1525 20.1194L37.5462 21.5H34.4881Z" fill="#026AA2"/>
</svg>
