<svg width="117" height="40" viewBox="0 0 117 40" fill="none" xmlns="http://www.w3.org/2000/svg">
<path d="M17.6829 29V27.008H20.2509V29H17.6829ZM8.51494 29C6.89894 29 5.54694 28.808 4.45894 28.424C3.37094 28.024 2.54694 27.432 1.98694 26.648C1.44294 25.864 1.17094 24.864 1.17094 23.648C1.17094 23.264 1.19494 22.856 1.24294 22.424C1.30694 21.976 1.37094 21.544 1.43494 21.128C1.51494 20.712 1.58694 20.352 1.65094 20.048C1.71494 19.744 1.76294 19.528 1.79494 19.4L3.97894 19.808C3.93094 20.064 3.85894 20.408 3.76294 20.84C3.68294 21.272 3.60294 21.736 3.52294 22.232C3.44294 22.728 3.40294 23.2 3.40294 23.648C3.40294 24.24 3.49894 24.752 3.69094 25.184C3.88294 25.616 4.17894 25.968 4.57894 26.24C4.99494 26.512 5.52294 26.712 6.16294 26.84C6.81894 26.952 7.61894 27.008 8.56294 27.008H16.5789L15.4269 27.92V11.864H17.6829V29H8.51494ZM20.2509 29V27.008C20.3469 27.008 20.4269 27.032 20.4909 27.08C20.5549 27.128 20.6029 27.192 20.6349 27.272C20.6669 27.352 20.6909 27.456 20.7069 27.584C20.7229 27.696 20.7309 27.832 20.7309 27.992C20.7309 28.136 20.7229 28.272 20.7069 28.4C20.6909 28.528 20.6669 28.64 20.6349 28.736C20.6029 28.816 20.5549 28.88 20.4909 28.928C20.4269 28.976 20.3469 29 20.2509 29ZM8.22694 20.48C7.95494 20.144 7.74694 19.824 7.60294 19.52C7.45894 19.2 7.38694 18.864 7.38694 18.512C7.38694 18.032 7.50694 17.6 7.74694 17.216C8.00294 16.832 8.33094 16.528 8.73094 16.304C9.14694 16.08 9.58694 15.968 10.0509 15.968C10.3229 15.968 10.5949 16.008 10.8669 16.088C11.1389 16.168 11.3789 16.272 11.5869 16.4L10.9149 17.576C10.7869 17.496 10.6589 17.448 10.5309 17.432C10.4029 17.4 10.2749 17.384 10.1469 17.384C9.76294 17.384 9.46694 17.488 9.25894 17.696C9.05094 17.904 8.94694 18.176 8.94694 18.512C8.94694 18.72 8.98694 18.92 9.06694 19.112C9.14694 19.288 9.27494 19.488 9.45094 19.712L8.22694 20.48ZM6.90694 20.528V19.136H11.9229V20.528H6.90694ZM21.6206 32.144V31.232H26.5166V32.144H21.6206ZM25.41 29V27.008H28.122V29H25.41ZM28.122 29V27.008C28.218 27.008 28.298 27.032 28.362 27.08C28.426 27.128 28.474 27.192 28.506 27.272C28.538 27.352 28.562 27.456 28.578 27.584C28.594 27.696 28.602 27.832 28.602 27.992C28.602 28.136 28.594 28.272 28.578 28.4C28.562 28.528 28.538 28.64 28.506 28.736C28.474 28.816 28.426 28.88 28.362 28.928C28.298 28.976 28.218 29 28.122 29ZM20.25 29C20.154 29 20.074 28.976 20.01 28.928C19.946 28.88 19.898 28.816 19.866 28.736C19.834 28.64 19.81 28.528 19.794 28.4C19.778 28.272 19.77 28.136 19.77 27.992C19.77 27.784 19.786 27.608 19.818 27.464C19.834 27.32 19.882 27.208 19.962 27.128C20.026 27.048 20.122 27.008 20.25 27.008V29ZM20.25 29V27.008H24.33L23.178 27.92V16.976H25.41V29H20.25ZM21.402 14.816V12.488H23.61V14.816H21.402ZM24.978 14.816V12.488H27.186V14.816H24.978ZM33.4009 14.752C32.8569 14.752 32.4409 14.552 32.1529 14.152C31.8809 13.736 31.7449 13.168 31.7449 12.448V11.704H32.6569V12.448C32.6569 12.96 32.7209 13.32 32.8489 13.528C32.9769 13.72 33.1609 13.816 33.4009 13.816C33.7529 13.816 33.9849 13.616 34.0969 13.216C34.2249 12.8 34.2089 12.136 34.0489 11.224L34.9609 11.056C35.1689 12.192 35.1449 13.096 34.8889 13.768C34.6489 14.424 34.1529 14.752 33.4009 14.752ZM31.0009 14.752C30.2489 14.752 29.7449 14.424 29.4889 13.768C29.2489 13.096 29.2329 12.192 29.4409 11.056L30.3529 11.224C30.1929 12.136 30.1689 12.8 30.2809 13.216C30.4089 13.616 30.6489 13.816 31.0009 13.816C31.2409 13.816 31.4249 13.72 31.5529 13.528C31.6809 13.32 31.7449 12.96 31.7449 12.448V11.704H32.6569V12.448C32.6569 13.168 32.5129 13.736 32.2249 14.152C31.9529 14.552 31.5449 14.752 31.0009 14.752ZM33.285 29V27.008H35.997V29H33.285ZM35.997 29V27.008C36.093 27.008 36.173 27.032 36.237 27.08C36.301 27.128 36.349 27.192 36.381 27.272C36.413 27.352 36.437 27.456 36.453 27.584C36.469 27.696 36.477 27.832 36.477 27.992C36.477 28.136 36.469 28.272 36.453 28.4C36.437 28.528 36.413 28.64 36.381 28.736C36.349 28.816 36.301 28.88 36.237 28.928C36.173 28.976 36.093 29 35.997 29ZM28.125 29C28.029 29 27.949 28.976 27.885 28.928C27.821 28.88 27.773 28.816 27.741 28.736C27.709 28.64 27.685 28.528 27.669 28.4C27.653 28.272 27.645 28.136 27.645 27.992C27.645 27.784 27.661 27.608 27.693 27.464C27.709 27.32 27.757 27.208 27.837 27.128C27.901 27.048 27.997 27.008 28.125 27.008V29ZM28.125 29V27.008H32.205L31.053 27.92V16.976H33.285V29H28.125ZM29.061 33.536V31.208H31.269V33.536H29.061ZM32.637 33.536V31.208H34.845V33.536H32.637ZM41.088 29V27.008H43.68V29H41.088ZM36 29C35.904 29 35.824 28.976 35.76 28.928C35.696 28.88 35.648 28.816 35.616 28.736C35.584 28.64 35.56 28.528 35.544 28.4C35.528 28.272 35.52 28.136 35.52 27.992C35.52 27.784 35.536 27.608 35.568 27.464C35.584 27.32 35.632 27.208 35.712 27.128C35.776 27.048 35.872 27.008 36 27.008V29ZM38.856 29V11.864H41.088V29H38.856ZM36 29V27.008H38.856V29H36ZM43.68 29V27.008C43.76 27.008 43.832 27.032 43.896 27.08C43.96 27.128 44.008 27.192 44.04 27.272C44.072 27.352 44.096 27.456 44.112 27.584C44.144 27.696 44.16 27.832 44.16 27.992C44.16 28.136 44.144 28.272 44.112 28.4C44.096 28.528 44.072 28.64 44.04 28.736C44.008 28.816 43.96 28.88 43.896 28.928C43.832 28.976 43.76 29 43.68 29ZM43.6875 29V27.008H55.6875L54.9195 27.68V23.672C54.9195 22.824 54.8075 22.128 54.5835 21.584C54.3755 21.024 54.0555 20.616 53.6235 20.36C53.1915 20.088 52.6555 19.952 52.0155 19.952H46.7595L45.2235 17.672L46.3275 15.584C46.5035 15.264 46.6875 14.928 46.8795 14.576C47.0875 14.208 47.3355 13.792 47.6235 13.328C47.9275 12.848 48.3115 12.272 48.7755 11.6L50.6475 12.68C50.1995 13.368 49.8315 13.936 49.5435 14.384C49.2715 14.832 49.0395 15.224 48.8475 15.56C48.6555 15.88 48.4715 16.2 48.2955 16.52L47.1675 18.68L46.6875 17.96H52.0155C53.0235 17.96 53.8635 18.136 54.5355 18.488C55.2075 18.824 55.7275 19.272 56.0955 19.832C56.4795 20.392 56.7515 21.016 56.9115 21.704C57.0875 22.376 57.1755 23.032 57.1755 23.672V29H43.6875ZM43.6875 29C43.5915 29 43.5115 28.976 43.4475 28.928C43.3835 28.88 43.3355 28.816 43.3035 28.736C43.2715 28.64 43.2475 28.528 43.2315 28.4C43.2155 28.272 43.2075 28.136 43.2075 27.992C43.2075 27.784 43.2235 27.608 43.2555 27.464C43.2715 27.32 43.3195 27.208 43.3995 27.128C43.4635 27.048 43.5595 27.008 43.6875 27.008V29Z" fill="#026AA2"/>
<mask id="mask0_898_16123" style="mask-type:luminance" maskUnits="userSpaceOnUse" x="72" y="1" width="38" height="39">
<path d="M72.8125 1.66016H109.82V40.0006H72.8125V1.66016Z" fill="white"/>
</mask>
<g mask="url(#mask0_898_16123)">
<path fill-rule="evenodd" clip-rule="evenodd" d="M94.5137 35.3341C96.2874 34.7436 101.204 32.8833 101.622 31.2806C100.108 29.0102 97.9262 30.9181 95.1604 31.2412C92.1115 31.6021 90.8594 31.8302 88.0294 32.5602C83.5392 33.715 72.8706 22.8045 77.3773 11.218C79.1197 6.74781 80.3719 5.43546 83.9094 2.74186C84.4129 2.35635 84.658 2.13653 84.9575 1.86914C80.0411 3.40131 75.2038 8.4834 73.5798 15.0042C72.6271 18.8297 72.8229 22.5453 73.927 26.2527C76.6764 35.4752 86.4696 40.8641 95.5158 39.9438C97.1545 39.7797 98.9496 39.2532 100.077 38.5461C100.746 38.1229 101.187 37.6669 101.952 37.2026C103.922 36.0166 110.09 32.8046 109.564 30.4784C106.561 28.5542 98.4774 37.7768 94.522 35.3341H94.5137Z" fill="#0069AB"/>
</g>
<mask id="mask1_898_16123" style="mask-type:luminance" maskUnits="userSpaceOnUse" x="79" y="0" width="38" height="39">
<path d="M79.9297 0H116.996V38.196H79.9297V0Z" fill="white"/>
</mask>
<g mask="url(#mask1_898_16123)">
<path fill-rule="evenodd" clip-rule="evenodd" d="M95.2211 4.7126C93.4474 5.30152 88.531 7.16342 88.1147 8.76614C89.6268 11.0365 91.8086 9.12703 94.5744 8.80551C97.6233 8.44297 98.877 8.21495 101.705 7.48495C106.196 6.33008 116.864 17.2407 112.357 28.8287C110.64 33.2514 109.434 34.5473 105.825 37.3049C105.322 37.6888 105.077 37.9086 104.777 38.176C109.694 36.6438 114.533 31.5617 116.155 25.0426C117.109 21.2171 116.912 17.5015 115.808 13.7924C113.058 4.57153 103.273 -0.817324 94.2207 0.101323C92.5819 0.265368 90.7852 0.791949 89.6581 1.49898C88.9884 1.92385 88.5475 2.37826 87.7824 2.8425C85.8129 4.02854 79.6444 7.24217 80.1726 9.56667C83.1737 11.4909 91.2574 2.26835 95.2128 4.7126H95.2211Z" fill="#0069AB"/>
</g>
<path fill-rule="evenodd" clip-rule="evenodd" d="M93.2799 28.0828C93.3602 23.4841 91.8304 20.7672 88.6887 19.9153C88.5281 19.9153 88.3992 19.9966 88.2318 20.1998C87.5506 21.3347 89.9541 21.3753 89.1289 24.1244C88.1833 27.2714 81.8113 26.494 82.5243 17.9369C83.1252 10.6535 89.1289 10.6129 90.2587 13.8972C91.0688 16.2499 89.2411 16.7682 89.7616 18.0182C89.7867 18.025 89.8102 18.0334 89.842 18.0419C90.0261 18.1063 90.5148 18.3095 91.0772 18.5772C91.7902 19.0074 92.3744 19.6239 92.8564 20.4098C93.8975 22.146 94.3779 24.7409 94.2992 28.1963C93.9209 28.1488 93.5845 28.0997 93.2966 28.0675L93.2799 28.0828Z" fill="#0069AB"/>
<path fill-rule="evenodd" clip-rule="evenodd" d="M96.6023 28.0828C96.5264 23.4841 97.9715 20.7672 100.941 19.9153C101.091 19.9153 101.213 19.9966 101.373 20.1998C102.016 21.3347 99.744 21.3753 100.523 24.1244C101.417 27.2714 107.428 26.494 106.763 17.9369C106.195 10.6535 100.523 10.6129 99.4562 13.8972C98.6909 16.2499 100.418 16.7682 99.9258 18.0182C99.9036 18.025 99.8799 18.0334 99.8499 18.0419C99.676 18.1063 99.2064 18.3095 98.6846 18.5772C98.0095 19.0074 97.4577 19.6239 97.0023 20.4098C96.0189 22.146 95.5651 24.7409 95.641 28.1963C95.9967 28.1488 96.3145 28.0997 96.5865 28.0675L96.6023 28.0828Z" fill="#0069AB"/>
</svg>
