<svg width="21" height="18" viewBox="0 0 21 18" fill="none" xmlns="http://www.w3.org/2000/svg">
<path fill-rule="evenodd" clip-rule="evenodd" d="M0.75 3C0.75 1.34315 2.09315 0 3.75 0H17.25C18.9069 0 20.25 1.34315 20.25 3V15C20.25 16.6569 18.9069 18 17.25 18H3.75C2.09315 18 0.75 16.6569 0.75 15V3ZM18.75 6H2.25V15C2.25 15.8284 2.92157 16.5 3.75 16.5H17.25C18.0784 16.5 18.75 15.8284 18.75 15V6ZM3.75 2.25C3.33579 2.25 3 2.58579 3 3V3.0075C3 3.42171 3.33579 3.7575 3.75 3.7575H3.7575C4.17171 3.7575 4.5075 3.42171 4.5075 3.0075V3C4.5075 2.58579 4.17171 2.25 3.7575 2.25H3.75ZM5.25 3C5.25 2.58579 5.58579 2.25 6 2.25H6.0075C6.42171 2.25 6.7575 2.58579 6.7575 3V3.0075C6.7575 3.42171 6.42171 3.7575 6.0075 3.7575H6C5.58579 3.7575 5.25 3.42171 5.25 3.0075V3ZM8.25 2.25C7.83579 2.25 7.5 2.58579 7.5 3V3.0075C7.5 3.42171 7.83579 3.7575 8.25 3.7575H8.2575C8.67171 3.7575 9.0075 3.42171 9.0075 3.0075V3C9.0075 2.58579 8.67171 2.25 8.2575 2.25H8.25Z" fill="#808080"/>
</svg>
