<svg width="10" height="16" viewBox="0 0 10 16" fill="none" xmlns="http://www.w3.org/2000/svg">
<path fill-rule="evenodd" clip-rule="evenodd" d="M4.46967 0.71967C4.76256 0.426777 5.23744 0.426777 5.53033 0.71967L9.28033 4.46967C9.57322 4.76256 9.57322 5.23744 9.28033 5.53033C8.98744 5.82322 8.51256 5.82322 8.21967 5.53033L5 2.31066L1.78033 5.53033C1.48744 5.82322 1.01256 5.82322 0.71967 5.53033C0.426777 5.23744 0.426777 4.76256 0.71967 4.46967L4.46967 0.71967ZM0.71967 10.4697C1.01256 10.1768 1.48744 10.1768 1.78033 10.4697L5 13.6893L8.21967 10.4697C8.51256 10.1768 8.98744 10.1768 9.28033 10.4697C9.57322 10.7626 9.57322 11.2374 9.28033 11.5303L5.53033 15.2803C5.23744 15.5732 4.76256 15.5732 4.46967 15.2803L0.71967 11.5303C0.426777 11.2374 0.426777 10.7626 0.71967 10.4697Z" fill="#808080"/>
</svg>
