<svg width="23" height="20" viewBox="0 0 23 20" fill="none" xmlns="http://www.w3.org/2000/svg">
<path d="M3.03033 0.46967C2.73744 0.176777 2.26256 0.176777 1.96967 0.46967C1.67678 0.762563 1.67678 1.23744 1.96967 1.53033L19.9697 19.5303C20.2626 19.8232 20.7374 19.8232 21.0303 19.5303C21.3232 19.2374 21.3232 18.7626 21.0303 18.4697L3.03033 0.46967Z" fill="#808080"/>
<path d="M22.1759 10.5533C21.6319 12.1887 20.7226 13.6575 19.5447 14.8627L16.4462 11.7642C16.6429 11.2129 16.75 10.6189 16.75 10C16.75 7.1005 14.3995 4.75 11.5 4.75C10.8811 4.75 10.2871 4.8571 9.73577 5.05379L7.25898 2.577C8.56783 2.04381 9.99977 1.75 11.5005 1.75C16.4708 1.75 20.6864 4.97271 22.1755 9.44045C22.2959 9.80152 22.296 10.1922 22.1759 10.5533Z" fill="#808080"/>
<path d="M15.25 10C15.25 10.1802 15.2373 10.3574 15.2127 10.5308L10.9692 6.28727C11.1426 6.2627 11.3198 6.25 11.5 6.25C13.5711 6.25 15.25 7.92893 15.25 10Z" fill="#808080"/>
<path d="M12.0308 13.7127L7.78727 9.46925C7.7627 9.64263 7.75 9.81983 7.75 10C7.75 12.0711 9.42893 13.75 11.5 13.75C11.6802 13.75 11.8574 13.7373 12.0308 13.7127Z" fill="#808080"/>
<path d="M6.25 10C6.25 9.38107 6.3571 8.78715 6.55379 8.23577L3.45492 5.1369C2.27687 6.34222 1.36747 7.81114 0.823411 9.4467C0.703283 9.80783 0.703397 10.1985 0.823739 10.5595C2.31284 15.0273 6.52847 18.25 11.4988 18.25C12.9997 18.25 14.4318 17.9561 15.7408 17.4228L13.2642 14.9462C12.7129 15.1429 12.1189 15.25 11.5 15.25C8.6005 15.25 6.25 12.8995 6.25 10Z" fill="#808080"/>
</svg>
