<svg width="17" height="22" viewBox="0 0 17 22" fill="none" xmlns="http://www.w3.org/2000/svg">
<path fill-rule="evenodd" clip-rule="evenodd" d="M8.5 0.5C5.60051 0.5 3.25 2.85051 3.25 5.75V8.75C1.59315 8.75 0.25 10.0931 0.25 11.75V18.5C0.25 20.1569 1.59315 21.5 3.25 21.5H13.75C15.4069 21.5 16.75 20.1569 16.75 18.5V11.75C16.75 10.0931 15.4069 8.75 13.75 8.75V5.75C13.75 2.85051 11.3995 0.5 8.5 0.5ZM12.25 8.75V5.75C12.25 3.67893 10.5711 2 8.5 2C6.42893 2 4.75 3.67893 4.75 5.75V8.75H12.25Z" fill="#808080"/>
</svg>
