<svg width="14" height="24" viewBox="0 0 14 24" fill="none" xmlns="http://www.w3.org/2000/svg">
<path d="M3.25 4.5C3.25 2.42893 4.92893 0.75 7 0.75C9.07107 0.75 10.75 2.42893 10.75 4.5V12.75C10.75 14.8211 9.07107 16.5 7 16.5C4.92893 16.5 3.25 14.8211 3.25 12.75V4.5Z" fill="#808080"/>
<path d="M1 10.5C1.41421 10.5 1.75 10.8358 1.75 11.25V12.75C1.75 15.6495 4.1005 18 7 18C9.8995 18 12.25 15.6495 12.25 12.75V11.25C12.25 10.8358 12.5858 10.5 13 10.5C13.4142 10.5 13.75 10.8358 13.75 11.25V12.75C13.75 16.2244 11.125 19.0857 7.75 19.4588V21.75H10.75C11.1642 21.75 11.5 22.0858 11.5 22.5C11.5 22.9142 11.1642 23.25 10.75 23.25H3.25C2.83579 23.25 2.5 22.9142 2.5 22.5C2.5 22.0858 2.83579 21.75 3.25 21.75H6.25V19.4588C2.87504 19.0857 0.25 16.2244 0.25 12.75V11.25C0.25 10.8358 0.585786 10.5 1 10.5Z" fill="#808080"/>
</svg>
