<svg width="18" height="18" viewBox="0 0 18 18" fill="none" xmlns="http://www.w3.org/2000/svg">
<path d="M12.7539 11.2559H11.9639L11.6839 10.9859C12.6639 9.84586 13.2539 8.36586 13.2539 6.75586C13.2539 3.16586 10.3439 0.255859 6.75391 0.255859C3.16391 0.255859 0.253906 3.16586 0.253906 6.75586C0.253906 10.3459 3.16391 13.2559 6.75391 13.2559C8.36391 13.2559 9.84391 12.6659 10.9839 11.6859L11.2539 11.9659V12.7559L16.2539 17.7459L17.7439 16.2559L12.7539 11.2559ZM6.75391 11.2559C4.26391 11.2559 2.25391 9.24586 2.25391 6.75586C2.25391 4.26586 4.26391 2.25586 6.75391 2.25586C9.24391 2.25586 11.2539 4.26586 11.2539 6.75586C11.2539 9.24586 9.24391 11.2559 6.75391 11.2559Z" fill="#747881"/>
</svg>
