<svg width="22" height="20" viewBox="0 0 22 20" fill="none" xmlns="http://www.w3.org/2000/svg">
<path d="M12.5 2.0616C12.5 0.725249 10.8843 0.0559907 9.93934 1.00094L5.43934 5.50094H3.50905C2.36772 5.50094 1.19106 6.16538 0.849304 7.406C0.62147 8.23307 0.5 9.10342 0.5 10.0009C0.5 10.8985 0.62147 11.7688 0.849304 12.5959C1.19106 13.8365 2.36772 14.5009 3.50905 14.5009H5.43934L9.93934 19.0009C10.8843 19.9459 12.5 19.2766 12.5 17.9403V2.0616Z" fill="#808080"/>
<path d="M16.7803 7.2206C16.4874 6.92771 16.0126 6.92771 15.7197 7.2206C15.4268 7.51349 15.4268 7.98837 15.7197 8.28126L17.4393 10.0009L15.7197 11.7206C15.4268 12.0135 15.4268 12.4884 15.7197 12.7813C16.0126 13.0742 16.4874 13.0742 16.7803 12.7813L18.5 11.0616L20.2197 12.7813C20.5126 13.0742 20.9874 13.0742 21.2803 12.7813C21.5732 12.4884 21.5732 12.0135 21.2803 11.7206L19.5607 10.0009L21.2803 8.28126C21.5732 7.98837 21.5732 7.51349 21.2803 7.2206C20.9874 6.92771 20.5126 6.92771 20.2197 7.2206L18.5 8.94027L16.7803 7.2206Z" fill="#808080"/>
</svg>
