<svg width="22" height="18" viewBox="0 0 22 18" fill="none" xmlns="http://www.w3.org/2000/svg">
<path fill-rule="evenodd" clip-rule="evenodd" d="M0.5 3C0.5 1.75736 1.50736 0.75 2.75 0.75H19.25C20.4926 0.75 21.5 1.75736 21.5 3V15C21.5 16.2426 20.4926 17.25 19.25 17.25H2.75C1.50736 17.25 0.5 16.2426 0.5 15V3ZM2 13.0607V15C2 15.4142 2.33579 15.75 2.75 15.75H19.25C19.6642 15.75 20 15.4142 20 15V13.0607L17.3107 10.3713C16.7249 9.78553 15.7751 9.78553 15.1893 10.3713L14.3107 11.25L15.2803 12.2197C15.5732 12.5126 15.5732 12.9874 15.2803 13.2803C14.9874 13.5732 14.5126 13.5732 14.2197 13.2803L9.06066 8.12132C8.47487 7.53553 7.52513 7.53553 6.93934 8.12132L2 13.0607ZM12.125 5.25C12.125 4.62868 12.6287 4.125 13.25 4.125C13.8713 4.125 14.375 4.62868 14.375 5.25C14.375 5.87132 13.8713 6.375 13.25 6.375C12.6287 6.375 12.125 5.87132 12.125 5.25Z" fill="#808080"/>
</svg>
