<svg width="26" height="26" viewBox="0 0 26 26" fill="none" xmlns="http://www.w3.org/2000/svg">
<path d="M13.9375 13.9375C13.9375 14.4553 13.5178 14.875 13 14.875C12.4822 14.875 12.0625 14.4553 12.0625 13.9375C12.0625 13.4197 12.4822 13 13 13C13.5178 13 13.9375 13.4197 13.9375 13.9375Z" fill="#026AA2"/>
<path d="M7.375 17.6875C7.89277 17.6875 8.3125 17.2678 8.3125 16.75C8.3125 16.2322 7.89277 15.8125 7.375 15.8125C6.85723 15.8125 6.4375 16.2322 6.4375 16.75C6.4375 17.2678 6.85723 17.6875 7.375 17.6875Z" fill="#026AA2"/>
<path d="M8.3125 19.5625C8.3125 20.0803 7.89277 20.5 7.375 20.5C6.85723 20.5 6.4375 20.0803 6.4375 19.5625C6.4375 19.0447 6.85723 18.625 7.375 18.625C7.89277 18.625 8.3125 19.0447 8.3125 19.5625Z" fill="#026AA2"/>
<path d="M10.1875 17.6875C10.7053 17.6875 11.125 17.2678 11.125 16.75C11.125 16.2322 10.7053 15.8125 10.1875 15.8125C9.66973 15.8125 9.25 16.2322 9.25 16.75C9.25 17.2678 9.66973 17.6875 10.1875 17.6875Z" fill="#026AA2"/>
<path d="M11.125 19.5625C11.125 20.0803 10.7053 20.5 10.1875 20.5C9.66973 20.5 9.25 20.0803 9.25 19.5625C9.25 19.0447 9.66973 18.625 10.1875 18.625C10.7053 18.625 11.125 19.0447 11.125 19.5625Z" fill="#026AA2"/>
<path d="M13 17.6875C13.5178 17.6875 13.9375 17.2678 13.9375 16.75C13.9375 16.2322 13.5178 15.8125 13 15.8125C12.4822 15.8125 12.0625 16.2322 12.0625 16.75C12.0625 17.2678 12.4822 17.6875 13 17.6875Z" fill="#026AA2"/>
<path d="M13.9375 19.5625C13.9375 20.0803 13.5178 20.5 13 20.5C12.4822 20.5 12.0625 20.0803 12.0625 19.5625C12.0625 19.0447 12.4822 18.625 13 18.625C13.5178 18.625 13.9375 19.0447 13.9375 19.5625Z" fill="#026AA2"/>
<path d="M15.8125 17.6875C16.3303 17.6875 16.75 17.2678 16.75 16.75C16.75 16.2322 16.3303 15.8125 15.8125 15.8125C15.2947 15.8125 14.875 16.2322 14.875 16.75C14.875 17.2678 15.2947 17.6875 15.8125 17.6875Z" fill="#026AA2"/>
<path d="M16.75 19.5625C16.75 20.0803 16.3303 20.5 15.8125 20.5C15.2947 20.5 14.875 20.0803 14.875 19.5625C14.875 19.0447 15.2947 18.625 15.8125 18.625C16.3303 18.625 16.75 19.0447 16.75 19.5625Z" fill="#026AA2"/>
<path d="M18.625 17.6875C19.1428 17.6875 19.5625 17.2678 19.5625 16.75C19.5625 16.2322 19.1428 15.8125 18.625 15.8125C18.1072 15.8125 17.6875 16.2322 17.6875 16.75C17.6875 17.2678 18.1072 17.6875 18.625 17.6875Z" fill="#026AA2"/>
<path d="M16.75 13.9375C16.75 14.4553 16.3303 14.875 15.8125 14.875C15.2947 14.875 14.875 14.4553 14.875 13.9375C14.875 13.4197 15.2947 13 15.8125 13C16.3303 13 16.75 13.4197 16.75 13.9375Z" fill="#026AA2"/>
<path d="M18.625 14.875C19.1428 14.875 19.5625 14.4553 19.5625 13.9375C19.5625 13.4197 19.1428 13 18.625 13C18.1072 13 17.6875 13.4197 17.6875 13.9375C17.6875 14.4553 18.1072 14.875 18.625 14.875Z" fill="#026AA2"/>
<path fill-rule="evenodd" clip-rule="evenodd" d="M6.4375 0.8125C6.95527 0.8125 7.375 1.23223 7.375 1.75V3.625H18.625V1.75C18.625 1.23223 19.0447 0.8125 19.5625 0.8125C20.0803 0.8125 20.5 1.23223 20.5 1.75V3.625H21.4375C23.5086 3.625 25.1875 5.30393 25.1875 7.375V21.4375C25.1875 23.5086 23.5086 25.1875 21.4375 25.1875H4.5625C2.49143 25.1875 0.8125 23.5086 0.8125 21.4375V7.375C0.8125 5.30393 2.49143 3.625 4.5625 3.625H5.5V1.75C5.5 1.23223 5.91973 0.8125 6.4375 0.8125ZM23.3125 12.0625C23.3125 11.027 22.473 10.1875 21.4375 10.1875H4.5625C3.52697 10.1875 2.6875 11.027 2.6875 12.0625V21.4375C2.6875 22.473 3.52697 23.3125 4.5625 23.3125H21.4375C22.473 23.3125 23.3125 22.473 23.3125 21.4375V12.0625Z" fill="#026AA2"/>
</svg>
