<svg width="22" height="27" viewBox="0 0 22 27" fill="none" xmlns="http://www.w3.org/2000/svg">
<path fill-rule="evenodd" clip-rule="evenodd" d="M5.37554 6C5.37554 2.8934 7.89393 0.375 11.0005 0.375C14.1071 0.375 16.6255 2.8934 16.6255 6C16.6255 9.1066 14.1071 11.625 11.0005 11.625C7.89393 11.625 5.37554 9.1066 5.37554 6Z" fill="#026AA2"/>
<path fill-rule="evenodd" clip-rule="evenodd" d="M0.689593 23.6317C0.786268 18.0195 5.36552 13.5 11.0005 13.5C16.6357 13.5 21.215 18.0197 21.3115 23.6321C21.3179 24.0043 21.1035 24.345 20.7651 24.5002C17.7914 25.8647 14.4837 26.625 11.0009 26.625C7.51786 26.625 4.20983 25.8646 1.23594 24.4999C0.8976 24.3446 0.683181 24.0039 0.689593 23.6317Z" fill="#026AA2"/>
</svg>
