<svg width="17" height="16" viewBox="0 0 17 16" fill="none" xmlns="http://www.w3.org/2000/svg">
<path fill-rule="evenodd" clip-rule="evenodd" d="M0.97998 8.02682C0.97998 12.4313 4.55051 16.0018 8.95498 16.0018C13.3595 16.0018 16.93 12.4313 16.93 8.02682C16.93 3.62235 13.3595 0.0518188 8.95498 0.0518188C4.55051 0.0518188 0.97998 3.62235 0.97998 8.02682ZM13.5387 8.48677L14.1324 8.32874L14.4899 8.89525L13.8844 9.03495L13.5387 8.48677ZM15.8296 8.58617L14.4899 8.89525L14.5007 8.91226L12.8497 11.3899L12.8508 10.4834L12.3442 11.2454L12.2348 11.2033L12.2231 11.7171L10.2816 10.9895L10.8454 10.6859L10.2691 10.4699V10.2903L9.94644 10.4642V7.92506L10.0209 7.96683L10.1025 7.82113H10.1618L10.1769 7.8506L10.2347 7.82113H10.2678V7.80421L10.6542 7.60718L10.3204 7.41972L12.2294 6.44097L12.2287 6.97011L12.5426 6.80941L12.8494 7.30008L12.8507 6.29765L14.1324 8.32874L15.757 7.89635L15.6785 8.30385L15.8296 8.58617ZM15.9666 8.8421C15.9778 8.74472 15.987 8.64674 15.9942 8.54819L15.8296 8.58617L15.9666 8.8421ZM16.0269 8.95477L15.9666 8.8421C15.7499 10.7262 14.7914 12.3845 13.3904 13.5176L12.8475 13.3799L12.8497 11.3899L12.5501 11.8396L12.2231 11.7171L12.1774 13.7303L10.8322 14.6867L10.8406 14.762L7.93052 13.7016V12.2552L10.2816 10.9895L9.94644 10.8638V10.4642L7.60914 11.7237L5.16658 10.3666L5.15389 7.65771L7.15589 6.35942L9.94644 7.92506V7.61143L10.3204 7.41972L7.54105 5.85873L7.38026 3.73227L10.1789 2.27591L12.2327 3.56993L12.2294 6.44097L12.7671 6.16525L12.8507 6.29765L12.8539 3.80978L14.1145 3.21038C15.0657 4.22892 15.7189 5.52938 15.935 6.97276L15.757 7.89635L16.0105 7.82889C16.0025 7.5388 15.977 7.25308 15.935 6.97276L15.9452 6.92001H16.0039C16.1095 7.59362 16.1172 8.27894 16.0269 8.95477ZM16.0269 8.95477L16.0269 8.95527H16.0272L16.0269 8.95477ZM12.8539 3.80978L12.8551 2.82229L12.2332 3.11781L12.2327 3.56993L12.7168 3.87496L12.8539 3.80978ZM9.92944 1.69085L10.2781 1.50939V2.22424L10.1789 2.27591L9.92944 2.11874V1.69085ZM7.25577 3.0822L9.92944 1.69085V1.03532C11.5728 1.26225 13.0354 2.05491 14.1145 3.21038L14.4977 3.02819C13.2835 1.75419 11.6729 0.929834 9.92944 0.689899V1.03532C9.61091 0.991333 9.2856 0.9686 8.95498 0.9686C7.45972 0.9686 6.07306 1.43356 4.93169 2.22678L5.19124 3.0822H4.75179L4.60736 3.31326L4.38696 2.64596C3.40117 3.48365 2.64853 4.58743 2.24003 5.84627L3.32781 5.36039L3.13958 5.66152L3.42354 6.05904L2.0245 6.68315C1.94066 7.11814 1.89676 7.56735 1.89676 8.02682C1.89676 9.37513 2.27482 10.6351 2.93073 11.7066L3.50842 11.6144L3.98528 12.1594L3.31225 12.2675C3.90099 13.0497 4.64858 13.7055 5.50708 14.187L5.51403 13.9066L5.86693 14.3099H6.12655L6.12116 14.4931C6.98851 14.8738 7.94708 15.085 8.95498 15.085C9.18805 15.085 9.41847 15.0737 9.64574 15.0517L7.68662 14.3099H7.93052V13.7016L7.34078 13.4867V13.7645H6.24605L7.68662 14.3099H6.12655L6.16318 13.0654L5.93819 13.1493L5.53949 12.8796L5.51403 13.9066L3.98528 12.1594L4.56412 12.0664L3.54764 11.6082L3.50842 11.6144L3.45929 11.5583L4.5444 10.4732L4.5475 11.1872L4.94137 10.7933L5.16917 10.92L5.16658 10.3666L4.83513 10.1824L4.5444 10.4732L4.532 7.61079L4.75179 7.91847L5.15389 7.65771L5.15231 7.32143L4.95057 7.46798L4.52883 6.87951L4.532 7.61079L3.42354 6.05904L3.818 5.88307L3.67165 5.67777L4.07987 5.02446L3.32781 5.36039L4.60736 3.31326L4.79609 3.88468L5.00607 3.54259H5.33093L5.19124 3.0822H7.25577ZM7.25577 3.0822H7.33111L7.38026 3.73227L6.6827 4.09527V3.38042L7.25577 3.0822ZM7.54105 5.85873L6.82471 5.4564V5.66148L6.43389 5.95434L7.15589 6.35942L7.55914 6.09791L7.54105 5.85873ZM7.60914 11.7237L7.93052 11.9023V12.2552L7.34078 12.5727V12.1251L7.10622 11.9948L7.60914 11.7237ZM10.8406 14.762L10.8566 14.9057C11.8182 14.64 12.7132 14.1752 13.4835 13.5412L13.3904 13.5176C13.2159 13.6587 13.0345 13.7917 12.8468 13.916L12.8475 13.3799L12.7168 13.3468L12.1774 13.7303L12.1641 14.315C11.7773 14.5128 11.3699 14.6759 10.9459 14.8004L10.8406 14.762Z" fill="#707174"/>
</svg>
