<svg width="16" height="17" viewBox="0 0 16 17" fill="none" xmlns="http://www.w3.org/2000/svg">
<path fill-rule="evenodd" clip-rule="evenodd" d="M14.2865 6.53704C15.2414 5.43312 16.523 2.93089 14.7522 1.06448C14.1314 0.410329 13.3606 0.0572495 12.5224 0.0432464C10.871 0.0155735 9.52774 1.29286 9.38004 1.43856L9.3797 1.43889C9.01829 1.36721 8.6312 1.32653 8.21511 1.32653C7.67632 1.32653 7.18088 1.39488 6.72311 1.51158L6.64576 1.44089L6.64309 1.43889C6.49539 1.29286 5.15209 0.0155735 3.50072 0.042913C2.66287 0.0569161 1.89169 0.409995 1.27055 1.06481C-0.496176 2.92689 0.776442 5.42179 1.73032 6.5297C1.06917 7.15051 -0.474171 8.88089 0.142634 11.0661C1.04417 14.2621 3.86347 14.3701 4.05218 14.3735H4.55996C5.42882 15.503 6.91348 16.0112 8.01073 16.0112C9.01829 16.0112 10.513 15.5801 11.4395 14.3735H11.9479C12.1467 14.3701 14.966 14.2621 15.8675 11.0661C16.4826 8.88523 14.9473 7.15817 14.2865 6.53704ZM14.9046 10.7943C14.2095 13.2592 12.1687 13.3689 11.9479 13.3736H11.0774C10.8124 13.3736 10.5973 13.5799 10.58 13.8407C9.85681 14.7115 8.69855 15.0109 8.01073 15.0109C7.33791 15.0109 6.19432 14.7222 5.46616 13.8934L5.46649 13.8896L5.46691 13.8866L5.46734 13.8841C5.46792 13.8806 5.46849 13.8772 5.46849 13.8737C5.46849 13.597 5.24478 13.3736 4.96838 13.3736H4.07151C3.84113 13.3689 1.80034 13.2592 1.10518 10.7943C0.52672 8.7452 2.53584 7.14617 2.61852 7.08149L2.86824 6.88745L2.9636 6.58738C3.01828 6.41367 4.35891 2.32709 8.21511 2.32709C12.0076 2.32709 12.9862 6.34132 13.0252 6.5087L13.1072 6.85944L13.3883 7.07882C13.474 7.14617 15.4827 8.7452 14.9046 10.7943ZM3.51739 1.04314C3.01028 1.05147 2.48249 1.24085 1.99605 1.7533C0.714095 3.1046 1.765 4.89567 2.27945 5.60716C2.72455 4.62394 3.75878 2.82387 5.65254 1.903C5.23244 1.57092 4.40826 1.02813 3.51739 1.04314ZM12.5054 1.04347C13.0125 1.05147 13.5406 1.24085 14.0264 1.7533C15.2854 3.07959 14.2968 4.82865 13.7734 5.56548C13.3849 4.53159 12.4461 2.66783 10.508 1.79797C10.9557 1.46823 11.7042 1.03013 12.5054 1.04347ZM8.43999 13.2085C8.48767 13.2579 8.56169 13.2949 8.67371 13.2949C9.01412 13.2949 9.02846 12.9661 9.02846 12.9625L9.69494 12.9925V12.9955C9.67394 13.4643 9.30886 13.9617 8.67371 13.9617C8.41665 13.9617 8.18394 13.8713 8.0069 13.7106C7.82952 13.8713 7.5968 13.9617 7.34008 13.9617C6.70494 13.9617 6.34019 13.4643 6.31885 12.9955V12.9925L6.98533 12.9625C6.98533 12.9661 7 13.2949 7.34008 13.2949C7.45211 13.2949 7.52579 13.2579 7.5738 13.2085C7.66915 13.1108 7.66549 12.9661 7.66549 12.9661V12.237C7.1427 11.9986 6.53523 11.3154 6.53523 10.873C6.53523 10.3292 7.08502 10.3292 7.08502 10.3292H8.00156H8.91877C8.91877 10.3292 9.46889 10.3292 9.46889 10.873C9.46889 11.3131 8.86876 11.9896 8.34797 12.232V12.9661C8.34797 12.9661 8.34464 13.1108 8.43999 13.2085ZM10.9972 7.32805C10.6291 7.32805 10.3304 7.77615 10.3304 8.3286C10.3304 8.88039 10.6291 9.32849 10.9972 9.32849C11.3656 9.32849 11.664 8.88039 11.664 8.3286C11.664 7.77615 11.3656 7.32805 10.9972 7.32805ZM4.32884 8.3286C4.32884 7.77615 4.62757 7.32805 4.99566 7.32805C5.36407 7.32805 5.66247 7.77615 5.66247 8.3286C5.66247 8.88039 5.36407 9.32849 4.99566 9.32849C4.62757 9.32849 4.32884 8.88039 4.32884 8.3286Z" fill="#707174"/>
</svg>
