<svg width="12" height="16" viewBox="0 0 12 16" fill="none" xmlns="http://www.w3.org/2000/svg">
<path fill-rule="evenodd" clip-rule="evenodd" d="M6.61066 2.508C6.61066 2.508 7.78933 1.879 8.67999 1.879C9.38907 1.89852 10.0782 2.10343 10.68 2.47012V8.3351C10.0553 8.04146 9.37318 7.88527 8.67999 7.879C7.84319 7.91105 7.02251 8.11889 6.27133 8.489C5.58363 8.89326 4.80969 9.12827 4.01333 9.17466C2.34666 9.17466 1.67999 8.18733 1.67999 8.18733V2.527C1.67999 2.527 2.34666 3.137 4.01333 3.137C4.9146 3.11911 5.80106 2.90444 6.61066 2.508ZM11.68 2.94833V8.94833L11.0133 8.508C10.9043 8.44591 10.7931 8.38825 10.68 8.3351V9.17466H11.68V9.94833L11.0133 9.508C10.3019 9.10292 9.49866 8.8864 8.67999 8.879C7.78933 8.879 6.61066 9.508 6.61066 9.508C5.80107 9.90445 4.9146 10.1191 4.01333 10.137C2.34666 10.137 1.67999 9.43266 1.67999 9.43266V15.1747H0.679993V1.17466H1.67999V1.18733C1.67999 1.18733 2.34666 2.17466 4.01333 2.17466C4.80969 2.12827 5.58363 1.89326 6.27133 1.489C7.02251 1.11889 7.84319 0.911052 8.67999 0.878998C9.49866 0.8864 10.3019 1.10292 11.0133 1.508L11.68 1.94833V2.08633L10.68 1.84133V2.47012C10.7944 2.53984 10.9057 2.61541 11.0133 2.69666L11.68 2.94833Z" fill="#707174"/>
</svg>
