<svg width="16" height="17" viewBox="0 0 16 17" fill="none" xmlns="http://www.w3.org/2000/svg">
<path fill-rule="evenodd" clip-rule="evenodd" d="M15.4477 9.92888C15.463 10.1066 14.8927 10.3112 14.8927 10.3112L15.98 10.9409C15.98 10.9409 15.8263 11.1269 15.5167 11.2959C15.907 11.6052 15.9663 11.9486 15.9663 12.3096C15.9663 12.7539 15.7953 13.1396 15.22 13.5002C15.506 13.7606 15.7877 14.7206 15.7877 15.0172C15.7877 15.5246 14.343 16.0129 14.0103 16.0129C13.6767 16.0129 10.9983 16.0166 9.17734 16.0166C8.36768 16.0166 7.59734 16.0209 6.88434 16.0166L1.28901 16.0016L0.0100098 3.67955H5.86868L6.68501 0.393884H6.68668C6.73901 0.188217 6.92368 0.0352173 7.14534 0.0352173C7.18834 0.0352173 7.22934 0.0432173 7.26868 0.0535506L7.26968 0.051884L7.32868 0.0722173C7.32968 0.0725506 7.33001 0.0725506 7.33068 0.0732173L10.5663 1.17888L10.2597 2.07722L7.48101 1.12722L6.84668 3.67955H8.34368L8.04801 6.71455C8.43601 6.69455 8.83401 6.68355 9.24168 6.68355C12.824 6.68355 15.741 7.44055 15.741 9.22755C15.741 9.56088 15.5617 9.57288 15.3743 9.87522C15.399 9.89155 15.4453 9.89788 15.4477 9.92888ZM4.15868 14.7549C4.49634 15.0889 5.27801 15.0172 5.27801 15.0172H8.99668H13.6637C13.6637 15.0172 14.0577 15.0142 14.361 14.7142C14.796 14.2839 14.2617 13.6752 13.7207 13.6752C12.6557 13.6752 5.93068 13.6666 4.69701 13.6666C4.14468 13.6666 3.82101 14.4202 4.15868 14.7549ZM9.27134 12.9752L15.1817 11.0172H3.60201L9.27134 12.9752ZM1.05734 4.67955L2.08601 15.0172H2.69168C2.68368 14.7206 3.03668 13.7919 3.32201 13.5316C2.74668 13.1712 2.47834 12.8479 2.47834 12.4032C2.47834 12.0219 2.58134 11.5052 3.01334 11.1829C2.47568 10.9979 2.38634 10.6189 2.73134 10.5172C3.11368 10.4036 3.15668 10.6656 3.38368 10.3736C2.94134 9.93588 2.69168 9.75122 2.69168 9.22755C2.69168 7.81222 4.55634 7.04555 7.10968 6.78688L7.34334 4.67955H1.05734ZM9.24134 7.65222C7.31101 7.65222 3.60234 8.07855 3.67234 9.24488C3.69368 9.59755 4.99668 10.0169 4.99668 10.0169H9.26234H13.4967C13.4967 10.0169 14.7837 9.55922 14.7927 9.24488C14.827 8.07755 11.1107 7.65222 9.24134 7.65222ZM0.0100098 3.67955C0.0100098 3.70755 0.0230098 3.82788 0.0100098 3.67955V3.67955Z" fill="#707174"/>
</svg>
