<svg width="13" height="17" viewBox="0 0 13 17" fill="none" xmlns="http://www.w3.org/2000/svg">
<path fill-rule="evenodd" clip-rule="evenodd" d="M8.94265 15.0161L8.89913 15.0151H8.94265V13.0628L9.04531 12.1935C9.18708 11.0504 9.74823 10.0007 10.62 9.24783C11.7177 8.25992 12.3208 6.83603 12.2666 5.36019C12.2666 2.41954 9.72431 0.026886 6.59999 0.026886C3.47568 0.026886 0.933358 2.41954 0.933358 5.36019C0.879144 6.83603 1.48225 8.25992 2.58002 9.24783C3.45176 10.0007 4.01291 11.0504 4.15467 12.1935L4.25734 13.0638V15.0161C4.2675 15.4582 4.59564 15.8282 5.03333 15.8911C5.5515 15.9749 6.07514 16.0203 6.59999 16.0268C7.12484 16.0203 7.64849 15.9749 8.16665 15.8911C8.60435 15.8282 8.93249 15.4582 8.94265 15.0161ZM9.95104 8.50452C8.918 9.3964 8.23951 10.6547 8.0585 12.0268H5.14142C4.95859 10.6512 4.28037 9.395 3.23362 8.49101C2.37144 7.71482 1.88934 6.57663 1.93335 5.36019C1.93335 2.98587 4.01481 1.02688 6.59999 1.02688C9.18517 1.02688 11.2666 2.98587 11.2673 5.3969C11.3106 6.57663 10.8285 7.71482 9.95104 8.50452ZM5.25733 13.0638V13.0268H7.94265V14.9142C7.48437 14.9844 7.03643 15.0213 6.58752 15.0269C6.15742 15.0212 5.70558 14.9835 5.25708 14.9141L5.25733 13.0638ZM7.26666 7.69351C7.26666 7.74622 7.27277 7.79751 7.28434 7.8467L6.60016 8.47778L5.91571 7.84644C5.92723 7.79733 5.93333 7.74613 5.93333 7.69351C5.93333 7.32532 5.63485 7.02685 5.26667 7.02685C4.89848 7.02685 4.6 7.32532 4.6 7.69351C4.6 8.0617 4.89848 8.36017 5.26667 8.36017C5.32269 8.36017 5.37709 8.35326 5.42908 8.34025L6.26666 9.11283V11.3602H6.93332V9.11314L7.77117 8.34032C7.82308 8.35329 7.87739 8.36017 7.93332 8.36017C8.30151 8.36017 8.59998 8.0617 8.59998 7.69351C8.59998 7.32532 8.30151 7.02685 7.93332 7.02685C7.56513 7.02685 7.26666 7.32532 7.26666 7.69351ZM5.26667 13.6935V14.3601H6.59999V13.6935H5.26667Z" fill="#707174"/>
</svg>
