<svg width="16" height="17" viewBox="0 0 16 17" fill="none" xmlns="http://www.w3.org/2000/svg">
<path fill-rule="evenodd" clip-rule="evenodd" d="M16 8.02682C16 3.60855 12.4183 0.026825 8 0.026825C3.58172 0.026825 0 3.60855 0 8.02682C0 12.4451 3.58172 16.0268 8 16.0268C12.4183 16.0268 16 12.4451 16 8.02682ZM15.0103 8.02682C15.0103 4.16083 11.8763 1.02682 8.01033 1.02682C4.14434 1.02682 1.01033 4.16083 1.01033 8.02682C1.01033 11.8928 4.14434 15.0268 8.01033 15.0268C11.8763 15.0268 15.0103 11.8928 15.0103 8.02682ZM10.75 5.02682C11.1643 5.02682 11.5 5.47449 11.5 6.02682C11.5 6.57916 11.1643 7.02682 10.75 7.02682C10.3357 7.02682 10 6.57916 10 6.02682C10 5.47449 10.3357 5.02682 10.75 5.02682ZM6.49667 6.02682C6.49667 5.47416 6.16167 5.02682 5.74833 5.02682C5.335 5.02682 5 5.47416 5 6.02682C5 6.57949 5.33333 7.02682 5.74833 7.02682C6.16333 7.02682 6.49667 6.57949 6.49667 6.02682ZM8.006 9.70249C9.4029 9.70249 10.666 9.40043 11.5733 9.18348C12.4594 8.97157 13.006 8.84086 13.006 9.15216C13.006 11.9136 10.7674 14.1522 8.006 14.1522C5.24458 14.1522 3.006 11.9136 3.006 9.15216C3.006 8.84086 3.55259 8.97157 4.43873 9.18348C5.34596 9.40043 6.6091 9.70249 8.006 9.70249ZM11.0959 10.1593C10.3975 10.342 9.32697 10.6222 8 10.6222C6.67303 10.6222 5.60251 10.342 4.90407 10.1593C4.32349 10.0074 4 9.92274 4 10.1222C4 12.0362 6.908 12.1222 8 12.1222C9.226 12.1222 12 12.0358 12 10.1222C12 9.92274 11.6765 10.0074 11.0959 10.1593Z" fill="#707174"/>
</svg>
