<svg width="15" height="17" viewBox="0 0 15 17" fill="none" xmlns="http://www.w3.org/2000/svg">
<path fill-rule="evenodd" clip-rule="evenodd" d="M10.955 0L10.9307 5.036C10.9307 5.036 9.99069 4.80667 9.33835 5.16933C8.29869 5.749 8.30502 6.57167 8.53469 7.20933C8.93669 8.326 11.9587 7.787 11.9587 5.63367V1.326C11.9587 1.326 13.4104 2.06267 13.5094 3.441C13.5482 3.98112 13.3053 4.41805 13.1087 4.77159C12.9144 5.12105 12.7654 5.38903 12.9787 5.59467C12.9787 5.59467 14.1994 4.46933 14.2217 3.39267C14.27 0.988 12.548 0 10.9557 0H10.955ZM6.80335 15.982H5.57002L4.90335 15.2357C4.33952 15.7398 3.61233 16.023 2.85602 16.033C1.57169 16.033 0.59602 15.2653 0.59602 14.077C0.59602 13.1927 1.13669 12.6497 1.88102 12.23C1.96435 12.18 2.05269 12.1353 2.14569 12.0907C1.70435 11.6183 1.32202 11.151 1.32202 10.5343C1.32202 9.67567 2.04735 8.96767 3.06235 8.96767C4.01835 8.96767 4.80269 9.60133 4.80269 10.541C4.80269 11.3867 4.15035 11.869 3.40035 12.2717L4.82802 13.9227C5.07134 13.3984 5.18487 12.8234 5.15902 12.246V11.9873H6.03202V12.2757C6.07518 13.0829 5.88629 13.8857 5.48769 14.589L6.80335 15.982ZM2.64535 12.6747C2.57202 12.7093 2.50335 12.7443 2.43469 12.784C1.90502 13.0723 1.54235 13.426 1.54269 14.0023C1.54269 14.793 2.17769 15.0977 2.90335 15.0977C3.43166 15.1211 3.94699 14.9299 4.33202 14.5673L2.64535 12.6747ZM2.90135 11.7347L2.90101 11.7343C3.494 11.4311 3.92002 11.1328 3.92002 10.586C3.93428 10.2725 3.7748 9.97653 3.50508 9.81602C3.23536 9.65552 2.89919 9.65651 2.63042 9.81859C2.36165 9.98068 2.20391 10.2775 2.22002 10.591C2.22002 10.9346 2.38661 11.2225 2.90101 11.7343L2.90035 11.7347H2.90135ZM11.7784 12.5107L9.38835 16.0223L8.17369 16.0537L10.8597 12.3927L13.3234 8.986H14.5034L11.7784 12.5107ZM4.27002 3.15933H3.27002V3.66048L0.27002 3.66133V2.65933H7.27002V3.65933L4.27002 3.66019V3.15933ZM4.27002 3.66019V7.65933H3.27002V3.66048L4.27002 3.66019ZM7.27002 0.659333H0.27002V1.65933H7.27002V0.659333ZM12.6764 14.2127C12.6764 13.6703 12.8804 13.2703 13.2974 13.2703C13.6974 13.2703 13.9097 13.648 13.9097 14.2217V14.2617C13.9097 14.8397 13.6794 15.2173 13.293 15.2173C12.8977 15.2173 12.6764 14.8307 12.6764 14.2527V14.2127ZM13.2827 15.995C12.405 15.995 11.905 15.2473 11.905 14.304V14.1647C11.905 13.2457 12.4194 12.498 13.2924 12.498C14.1654 12.498 14.68 13.2353 14.68 14.1737V14.314C14.68 15.2223 14.175 15.995 13.2827 15.995ZM8.67935 10.704C8.67935 10.1643 8.88269 9.766 9.29769 9.766C9.69535 9.766 9.90735 10.142 9.90735 10.7127V10.7523C9.90735 11.3277 9.67835 11.7037 9.29335 11.7037C8.90002 11.7037 8.67935 11.3187 8.67935 10.7437V10.7057V10.704ZM9.28269 12.4857C8.40502 12.4857 7.90502 11.738 7.90502 10.7947V10.6567C7.90502 9.73767 8.41935 8.99 9.29235 8.99C10.1654 8.99 10.68 9.72733 10.68 10.6657V10.8047C10.68 11.713 10.175 12.4857 9.28269 12.4857Z" fill="#707174"/>
</svg>
