<svg width="17" height="17" viewBox="0 0 17 17" fill="none" xmlns="http://www.w3.org/2000/svg">
<path fill-rule="evenodd" clip-rule="evenodd" d="M4.26333 0.026825H11.2633V4.01649H16.93V15.0165H15.93V6.02682V5.02682H11.2633V6.02682H10.2633V1.02682H5.26333L5.25477 7.02682H1.92999V15.0165H0.929993V6.01649H4.27021L4.26333 0.026825ZM2.92999 8.01649H3.92999V9.01649H2.92999V8.01649ZM9.26333 4.02682H8.26333V5.02682H9.26333V4.02682ZM6.26333 4.02682H7.26333V5.02682H6.26333V4.02682ZM14.93 6.01649H13.93V7.01649H14.93V6.01649ZM13.93 8.01649H14.93V9.01649H13.93V8.01649ZM7.26333 2.02682L6.26333 2.01649V3.02682H7.26333V2.02682ZM8.26333 2.02682H9.26333V3.02682H8.26333V2.02682ZM13.93 10.6935L12.93 10.6935V9.69349C12.8709 8.013 11.4865 6.68398 9.80499 6.69349H8.05499C6.37349 6.68398 4.98909 8.013 4.92999 9.69349V10.6935L3.92999 10.6935C3.5618 10.6935 3.26333 10.992 3.26333 11.3602V14.0268C3.26333 14.395 3.5618 14.6935 3.92999 14.6935V16.0268H5.92999V14.6935H11.93V16.0268H13.93V14.6935C14.2982 14.6935 14.5967 14.395 14.5967 14.0268V11.3602C14.5967 10.992 14.2982 10.6935 13.93 10.6935ZM11.93 10.6935C11.93 9.16849 11.93 7.69349 8.92999 7.69349C5.92999 7.69349 5.92999 9.17016 5.92999 10.6935H11.93ZM5.07599 11.4332C5.49021 11.4332 5.82599 11.7689 5.82599 12.1832C5.82599 12.5974 5.49021 12.9332 5.07599 12.9332C4.66178 12.9332 4.32599 12.5974 4.32599 12.1832C4.32599 11.7689 4.66178 11.4332 5.07599 11.4332ZM13.5137 12.1832C13.5137 11.7689 13.1779 11.4332 12.7637 11.4332H12.7633C12.3492 11.4333 12.0137 11.7691 12.0137 12.1832C12.0137 12.5974 12.3494 12.9332 12.7637 12.9332C13.1779 12.9332 13.5137 12.5974 13.5137 12.1832ZM13.93 13.3602V14.0165H11.0975C11.0972 14.0165 11.0969 14.0165 11.0967 14.0165H6.76333C6.76306 14.0165 6.76279 14.0165 6.76252 14.0165H3.92999V13.3602H6.42999V13.3498C6.42999 13.1657 6.57923 13.0165 6.76333 13.0165H11.0967C11.2808 13.0165 11.43 13.1657 11.43 13.3498V13.3602H13.93Z" fill="#707174"/>
</svg>
