<svg width="30" height="31" viewBox="0 0 30 31" fill="none" xmlns="http://www.w3.org/2000/svg">
<g clip-path="url(#clip0_1016_1489)">
<path d="M7.5 5.5H6.25C5.58696 5.5 4.95107 5.76339 4.48223 6.23223C4.01339 6.70107 3.75 7.33696 3.75 8V12.375C3.75 14.1984 4.47433 15.947 5.76364 17.2364C7.05295 18.5257 8.80164 19.25 10.625 19.25C12.4484 19.25 14.197 18.5257 15.4864 17.2364C16.7757 15.947 17.5 14.1984 17.5 12.375V8C17.5 7.33696 17.2366 6.70107 16.7678 6.23223C16.2989 5.76339 15.663 5.5 15 5.5H13.75" stroke="#0069AB" stroke-width="2" stroke-linecap="round" stroke-linejoin="round"/>
<path d="M10 19.25C10 20.2349 10.194 21.2102 10.5709 22.1201C10.9478 23.0301 11.5003 23.8569 12.1967 24.5533C12.8931 25.2497 13.7199 25.8022 14.6299 26.1791C15.5398 26.556 16.5151 26.75 17.5 26.75C18.4849 26.75 19.4602 26.556 20.3701 26.1791C21.2801 25.8022 22.1069 25.2497 22.8033 24.5533C23.4997 23.8569 24.0522 23.0301 24.4291 22.1201C24.806 21.2102 25 20.2349 25 19.25V15.5" stroke="#0069AB" stroke-width="2" stroke-linecap="round" stroke-linejoin="round"/>
<path d="M13.75 4.25V6.75" stroke="#0069AB" stroke-width="2" stroke-linecap="round" stroke-linejoin="round"/>
<path d="M7.5 4.25V6.75" stroke="#0069AB" stroke-width="2" stroke-linecap="round" stroke-linejoin="round"/>
<path d="M25 15.5C26.3807 15.5 27.5 14.3807 27.5 13C27.5 11.6193 26.3807 10.5 25 10.5C23.6193 10.5 22.5 11.6193 22.5 13C22.5 14.3807 23.6193 15.5 25 15.5Z" stroke="#0069AB" stroke-width="2" stroke-linecap="round" stroke-linejoin="round"/>
</g>
<defs>
<clipPath id="clip0_1016_1489">
<rect width="30" height="30" fill="white" transform="translate(0 0.5)"/>
</clipPath>
</defs>
</svg>
