<svg width="100" height="100" viewBox="0 0 100 100" fill="none" xmlns="http://www.w3.org/2000/svg">
<path fill-rule="evenodd" clip-rule="evenodd" d="M9.375 50C9.375 27.5634 27.5634 9.375 50 9.375C72.4366 9.375 90.625 27.5634 90.625 50C90.625 72.4366 72.4366 90.625 50 90.625C27.5634 90.625 9.375 72.4366 9.375 50ZM65.0429 42.4414C66.0461 41.037 65.7208 39.0852 64.3164 38.0821C62.912 37.0789 60.9602 37.4042 59.9571 38.8086L46.4762 57.6818L39.7097 50.9153C38.4893 49.6949 36.5107 49.6949 35.2903 50.9153C34.0699 52.1357 34.0699 54.1143 35.2903 55.3347L44.6653 64.7097C45.3148 65.3593 46.2173 65.6901 47.1328 65.6144C48.0482 65.5386 48.884 65.0639 49.4179 64.3164L65.0429 42.4414Z" fill="#026AA2"/>
</svg>
