<svg width="26" height="24" viewBox="0 0 26 24" fill="none" xmlns="http://www.w3.org/2000/svg">
<path d="M12.369 0.392387C12.6272 -0.130796 13.3732 -0.130796 13.6314 0.392387L16.9739 7.16504C17.0765 7.3728 17.2747 7.5168 17.504 7.55011L24.978 8.63616C25.5554 8.72005 25.7859 9.42958 25.3681 9.83682L19.9599 15.1086C19.7939 15.2703 19.7182 15.5033 19.7574 15.7317L21.0341 23.1755C21.1328 23.7506 20.5292 24.1891 20.0128 23.9176L13.3278 20.4031C13.1227 20.2952 12.8777 20.2952 12.6727 20.4031L5.98764 23.9176C5.47123 24.1891 4.86767 23.7506 4.9663 23.1755L6.24302 15.7317C6.28218 15.5033 6.20648 15.2703 6.04058 15.1086L0.632289 9.83682C0.214503 9.42958 0.445042 8.72005 1.02241 8.63616L8.49648 7.55011C8.72575 7.5168 8.92395 7.3728 9.02648 7.16504L12.369 0.392387Z" fill="#FACA15"/>
</svg>
