<svg width="658" height="695" viewBox="0 0 658 695" fill="none" xmlns="http://www.w3.org/2000/svg">
<path d="M82.0837 475.43H40.8151C40.5664 475.43 40.3278 475.331 40.1519 475.155C39.976 474.98 39.8772 474.741 39.8772 474.492V411.276H27.6279C27.4517 411.278 27.2784 411.23 27.1287 411.137C26.9791 411.044 26.8594 410.91 26.7838 410.751C26.6927 410.601 26.6445 410.429 26.6445 410.253C26.6445 410.078 26.6927 409.906 26.7838 409.756L60.549 367.137C60.6388 367.03 60.7508 366.945 60.8772 366.886C61.0035 366.827 61.1412 366.797 61.2806 366.797C61.4199 366.797 61.5576 366.827 61.684 366.886C61.8104 366.945 61.9224 367.03 62.0122 367.137L95.7773 409.756C95.8864 409.894 95.9544 410.06 95.9737 410.235C95.993 410.41 95.9628 410.586 95.8865 410.745C95.8102 410.903 95.691 411.037 95.5423 411.131C95.3937 411.225 95.2216 411.275 95.0458 411.276H82.7402V474.492C82.7497 474.699 82.6904 474.903 82.5717 475.073C82.4529 475.243 82.2813 475.368 82.0837 475.43ZM41.7906 473.554H81.1833V410.338C81.1833 410.089 81.2821 409.851 81.458 409.675C81.6339 409.499 81.8725 409.4 82.1212 409.4H93.3763L61.4869 369.238L29.5976 409.4H40.8527C41.1014 409.4 41.34 409.499 41.5159 409.675C41.6918 409.851 41.7906 410.089 41.7906 410.338V473.554Z" fill="#026AA2"/>
<path d="M496.344 475.43H455.075C454.827 475.43 454.588 475.331 454.412 475.155C454.236 474.98 454.138 474.741 454.138 474.492V411.276H441.832C441.656 411.275 441.484 411.225 441.335 411.131C441.187 411.037 441.068 410.903 440.991 410.745C440.915 410.586 440.885 410.41 440.904 410.235C440.923 410.06 440.991 409.894 441.1 409.756L474.959 367.137C475.049 367.03 475.161 366.945 475.288 366.886C475.414 366.827 475.552 366.797 475.691 366.797C475.83 366.797 475.968 366.827 476.094 366.886C476.221 366.945 476.333 367.03 476.423 367.137L510.282 409.756C510.391 409.894 510.459 410.06 510.478 410.235C510.497 410.41 510.467 410.586 510.391 410.745C510.314 410.903 510.195 411.037 510.047 411.131C509.898 411.225 509.726 411.275 509.55 411.276H497.244V474.492C497.245 474.735 497.151 474.968 496.983 475.143C496.815 475.317 496.586 475.42 496.344 475.43ZM456.051 473.554H495.444V410.338C495.444 410.089 495.542 409.851 495.718 409.675C495.894 409.499 496.133 409.4 496.382 409.4H507.637L475.747 369.238L443.858 409.4H455.113C455.362 409.4 455.6 409.499 455.776 409.675C455.952 409.851 456.051 410.089 456.051 410.338V473.554Z" fill="#026AA2"/>
<path d="M600.87 580.385H559.601C559.352 580.385 559.114 580.286 558.938 580.11C558.762 579.934 558.663 579.696 558.663 579.447V516.23H546.414C546.238 516.23 546.066 516.179 545.917 516.086C545.769 515.992 545.65 515.858 545.573 515.699C545.497 515.541 545.467 515.364 545.486 515.19C545.505 515.015 545.573 514.849 545.682 514.711L579.448 472.11C579.537 472.004 579.649 471.918 579.776 471.859C579.902 471.801 580.04 471.77 580.179 471.77C580.319 471.77 580.456 471.801 580.583 471.859C580.709 471.918 580.821 472.004 580.911 472.11L614.676 514.711C614.785 514.849 614.853 515.015 614.872 515.19C614.892 515.364 614.861 515.541 614.785 515.699C614.709 515.858 614.59 515.992 614.441 516.086C614.292 516.179 614.12 516.23 613.944 516.23H601.639V579.447C601.642 579.669 601.567 579.885 601.426 580.057C601.286 580.229 601.088 580.345 600.87 580.385ZM560.595 578.509H599.988V515.292C599.988 515.044 600.087 514.805 600.263 514.629C600.439 514.453 600.677 514.355 600.926 514.355H612.181L580.292 474.192L548.402 514.355H559.657C559.905 514.359 560.141 514.46 560.315 514.635C560.49 514.809 560.591 515.045 560.595 515.292V578.509Z" fill="#026AA2"/>
<path d="M558.04 335.248H516.771C516.523 335.248 516.284 335.149 516.108 334.973C515.932 334.797 515.834 334.558 515.834 334.31V271.093H503.528C503.35 271.094 503.175 271.043 503.025 270.947C502.875 270.85 502.757 270.712 502.684 270.549C502.609 270.389 502.58 270.212 502.6 270.036C502.62 269.861 502.688 269.694 502.796 269.555L536.562 226.954C536.653 226.847 536.767 226.761 536.895 226.703C537.023 226.644 537.162 226.613 537.303 226.613C537.443 226.613 537.583 226.644 537.71 226.703C537.838 226.761 537.952 226.847 538.044 226.954L571.809 269.555C571.916 269.695 571.982 269.862 572.001 270.037C572.019 270.212 571.989 270.389 571.913 270.548C571.838 270.707 571.72 270.842 571.572 270.938C571.424 271.035 571.253 271.088 571.077 271.093H558.772V334.31C558.777 334.527 558.707 334.738 558.573 334.909C558.44 335.08 558.252 335.2 558.04 335.248ZM517.766 333.372H557.158V270.155C557.158 269.907 557.257 269.668 557.433 269.492C557.609 269.316 557.848 269.217 558.096 269.217H569.351L537.462 229.037L505.573 269.217H516.828C517.076 269.217 517.315 269.316 517.491 269.492C517.667 269.668 517.766 269.907 517.766 270.155V333.372Z" fill="#026AA2"/>
<path d="M168.168 342.62H126.9C126.651 342.62 126.412 342.521 126.237 342.345C126.061 342.169 125.962 341.93 125.962 341.682V278.465H113.675C113.498 278.468 113.323 278.42 113.172 278.328C113.02 278.235 112.898 278.102 112.82 277.943C112.741 277.784 112.709 277.605 112.728 277.429C112.746 277.253 112.815 277.085 112.925 276.946L146.784 234.326C146.874 234.22 146.986 234.134 147.112 234.075C147.238 234.017 147.376 233.986 147.515 233.986C147.655 233.986 147.792 234.017 147.919 234.075C148.045 234.134 148.157 234.22 148.247 234.326L182.106 276.946C182.215 277.084 182.283 277.25 182.302 277.424C182.322 277.599 182.291 277.776 182.215 277.934C182.139 278.093 182.02 278.226 181.871 278.32C181.722 278.414 181.55 278.464 181.374 278.465H169.069V341.682C169.069 341.924 168.975 342.157 168.807 342.332C168.64 342.507 168.411 342.61 168.168 342.62ZM127.875 340.744H167.268V277.527C167.268 277.279 167.367 277.04 167.543 276.864C167.719 276.688 167.957 276.589 168.206 276.589H179.461L147.572 236.427L115.682 276.589H126.937C127.186 276.589 127.425 276.688 127.601 276.864C127.776 277.04 127.875 277.279 127.875 277.527V340.744Z" fill="#026AA2"/>
<path d="M233.821 580.385H192.552C192.303 580.385 192.065 580.286 191.889 580.11C191.713 579.934 191.614 579.696 191.614 579.447V516.23H179.309C179.133 516.23 178.961 516.179 178.812 516.086C178.663 515.992 178.544 515.858 178.468 515.699C178.392 515.541 178.361 515.364 178.381 515.19C178.4 515.015 178.468 514.849 178.577 514.711L212.436 472.11C212.526 472.004 212.638 471.918 212.764 471.859C212.891 471.801 213.028 471.77 213.168 471.77C213.307 471.77 213.445 471.801 213.571 471.859C213.697 471.918 213.809 472.004 213.899 472.11L247.758 514.711C247.868 514.85 247.936 515.018 247.955 515.194C247.974 515.371 247.942 515.549 247.863 515.708C247.785 515.867 247.663 516.001 247.511 516.093C247.36 516.186 247.185 516.233 247.008 516.23H234.721V579.447C234.721 579.689 234.628 579.922 234.46 580.097C234.292 580.272 234.063 580.375 233.821 580.385ZM193.527 578.509H232.92V515.292C232.92 515.044 233.019 514.805 233.195 514.629C233.371 514.453 233.609 514.355 233.858 514.355H245.113L213.224 474.192L181.335 514.355H192.59C192.838 514.355 193.077 514.453 193.253 514.629C193.429 514.805 193.527 515.044 193.527 515.292V578.509Z" fill="#026AA2"/>
<path d="M334.82 695C440.492 695 526.156 685.065 526.156 672.809C526.156 660.553 440.492 650.617 334.82 650.617C229.148 650.617 143.484 660.553 143.484 672.809C143.484 685.065 229.148 695 334.82 695Z" fill="#026AA2"/>
<path opacity="0.5" d="M334.82 695C440.492 695 526.156 685.065 526.156 672.809C526.156 660.553 440.492 650.617 334.82 650.617C229.148 650.617 143.484 660.553 143.484 672.809C143.484 685.065 229.148 695 334.82 695Z" fill="white"/>
<path d="M457.251 140.214C459.818 126.545 458.292 112.423 452.864 99.6182C447.437 86.8133 438.35 75.8959 426.742 68.235C415.135 60.5741 401.524 56.5108 387.617 56.5547C373.709 56.5985 360.124 60.7475 348.565 68.4814C340.17 48.0737 324.952 31.2122 305.51 20.7749C286.067 10.3376 263.605 6.97144 241.957 11.251C220.309 15.5306 200.818 27.1906 186.809 44.2409C172.801 61.2911 165.144 82.6747 165.145 104.742C165.145 105.924 165.145 107.087 165.145 108.25C151.459 112.15 139.531 120.637 131.359 132.288C123.188 143.939 119.271 158.045 120.265 172.241C121.259 186.437 127.103 199.86 136.818 210.259C146.533 220.657 159.528 227.4 173.624 229.355V230.012H454.213C465.612 229.616 476.437 224.908 484.499 216.839C492.562 208.77 497.261 197.941 497.647 186.541C498.032 175.141 494.077 164.019 486.578 155.423C479.08 146.827 468.598 141.398 457.251 140.233V140.214Z" fill="#263238" stroke="#263238" stroke-linecap="round" stroke-linejoin="round"/>
<path d="M457.251 131.773C459.818 118.104 458.292 103.981 452.864 91.1765C447.437 78.3716 438.35 67.4542 426.742 59.7934C415.135 52.1325 401.524 48.0692 387.617 48.113C373.709 48.1568 360.124 52.3058 348.565 60.0397C340.17 39.6335 324.955 22.773 305.514 12.3355C286.073 1.89795 263.613 -1.46958 241.967 2.80755C220.32 7.08469 200.828 18.7414 186.818 35.7883C172.808 52.8353 165.148 74.2159 165.145 96.2813C165.145 97.4631 165.145 98.6261 165.145 99.7891C151.459 103.69 139.531 112.177 131.359 123.828C123.188 135.479 119.271 149.585 120.265 163.781C121.259 177.977 127.103 191.4 136.818 201.798C146.533 212.197 159.528 218.939 173.624 220.895V221.551H454.213C465.612 221.156 476.437 216.448 484.499 208.379C492.562 200.31 497.261 189.481 497.647 178.081C498.032 166.68 494.077 155.559 486.578 146.963C479.08 138.367 468.598 132.938 457.251 131.773Z" fill="#026AA2" stroke="#263238" stroke-linecap="round" stroke-linejoin="round"/>
<path d="M359.95 383.231L348.151 389.422C348.151 389.422 335.227 395.049 326.785 399.533C318.344 404.016 276.757 436.074 276.757 436.074L268.334 436.637L263.269 440.014C263.269 440.014 254.828 441.702 254.828 443.39C254.828 445.079 256.516 445.623 258.205 445.623C260.745 444.982 263.2 444.044 265.52 442.828C265.52 442.828 259.799 451.194 262.05 451.194C265.309 451.531 268.547 452.051 271.748 452.751C275.472 452.057 279.228 451.556 283.003 451.25C285.817 451.25 292.551 436.074 292.551 436.074C292.551 436.074 340.892 416.959 347.082 412.457C353.272 407.955 371.243 396.719 371.243 396.719L359.95 383.231Z" fill="white" stroke="#263238" stroke-linecap="round" stroke-linejoin="round"/>
<path d="M405.325 337.048L352.633 384.919L367.827 402.909L397.053 391.673L407.164 337.704L405.325 337.048Z" fill="#026AA2" stroke="#263238" stroke-linecap="round" stroke-linejoin="round"/>
<path d="M359.667 378.542L352.633 384.919L367.827 402.909L376.887 399.42L359.667 378.542Z" fill="#263238" stroke="#263238" stroke-linecap="round" stroke-linejoin="round"/>
<path d="M497.304 636.604C497.304 636.604 514.037 654.011 515.744 662.547C517.451 671.082 513.361 678.604 506.533 676.541C499.705 674.477 493.552 653.336 491.845 649.585C490.138 645.833 488.094 641.725 488.094 641.725C488.094 641.725 493.215 634.897 497.304 636.604Z" fill="#026AA2" stroke="#263238" stroke-linecap="round" stroke-linejoin="round"/>
<path d="M515.892 663.466C517.13 671.607 513.097 678.473 506.512 676.597C504.13 675.903 501.842 672.845 499.797 669.093C504.261 661.871 511.446 662.265 515.892 663.466Z" fill="white" stroke="#263238" stroke-linecap="round" stroke-linejoin="round"/>
<path d="M497.477 664.16C501.228 669.281 505.993 674.777 509.595 673.821C513.196 672.864 515.091 666.092 515.747 662.565C517.436 671.082 513.346 678.548 506.537 676.503C503.198 675.546 500.046 670.013 497.477 664.16Z" fill="white" stroke="#263238" stroke-linecap="round" stroke-linejoin="round"/>
<path d="M493.892 646.17C493.892 646.17 501.395 642.062 501.751 643.431C502.108 644.801 494.586 648.552 493.555 648.552C492.523 648.552 491.848 648.214 493.892 646.17Z" fill="white" stroke="#263238" stroke-width="0.5" stroke-linecap="round" stroke-linejoin="round"/>
<path d="M495.599 648.553C495.599 648.553 503.102 644.464 503.458 645.833C503.815 647.202 496.293 650.954 495.262 650.954C494.23 650.954 493.555 650.616 495.599 648.553Z" fill="white" stroke="#263238" stroke-width="0.5" stroke-linecap="round" stroke-linejoin="round"/>
<path d="M497.302 650.954C497.302 650.954 504.805 646.846 505.161 648.215C505.518 649.585 497.996 653.336 496.965 653.336C495.933 653.336 495.258 652.998 497.302 650.954Z" fill="white" stroke="#263238" stroke-width="0.5" stroke-linecap="round" stroke-linejoin="round"/>
<path d="M499.013 653.336C499.013 653.336 506.516 649.247 506.872 650.598C507.229 651.948 499.707 655.718 498.676 655.718C497.644 655.718 496.969 655.381 499.013 653.336Z" fill="white" stroke="#263238" stroke-width="0.5" stroke-linecap="round" stroke-linejoin="round"/>
<path d="M362.491 652.267C362.491 652.267 369.019 661.365 369.601 666.524C370.182 671.682 365.849 671.814 360.334 671.232C354.819 670.65 348.235 674.721 340.469 674.515C332.703 674.308 323.717 670.913 328.032 667.218C332.346 663.522 343.601 660.483 346.04 658.364C347.496 657.089 348.862 655.717 350.129 654.255L362.491 652.267Z" fill="#026AA2" stroke="#263238" stroke-linecap="round" stroke-linejoin="round"/>
<path d="M328.034 667.217C329.55 666.025 331.214 665.035 332.986 664.272C334.969 665.335 336.714 666.791 338.114 668.552C339.514 670.313 340.539 672.342 341.127 674.514H340.452C332.686 674.307 323.719 670.912 328.034 667.217Z" fill="white" stroke="#263238" stroke-linecap="round" stroke-linejoin="round"/>
<path d="M346.747 657.163C346.747 657.163 354.756 661.345 352.73 662.171C350.705 662.996 344.627 658.307 346.747 657.163Z" fill="white" stroke="#263238" stroke-width="0.5" stroke-linecap="round" stroke-linejoin="round"/>
<path d="M343.634 658.007C343.634 658.007 351.643 662.19 349.617 663.015C347.591 663.84 341.514 659.151 343.634 658.007Z" fill="white" stroke="#263238" stroke-width="0.5" stroke-linecap="round" stroke-linejoin="round"/>
<path d="M341.833 659.245C341.833 659.245 349.842 663.428 347.816 664.253C345.791 665.078 339.713 660.389 341.833 659.245Z" fill="white" stroke="#263238" stroke-width="0.5" stroke-linecap="round" stroke-linejoin="round"/>
<path d="M338.571 660.746C338.571 660.746 346.581 664.929 344.555 665.754C342.529 666.579 336.414 661.871 338.571 660.746Z" fill="white" stroke="#263238" stroke-width="0.5" stroke-linecap="round" stroke-linejoin="round"/>
<path d="M327.132 668.362C332.746 671.667 339.427 672.656 345.759 671.119C351.637 669.828 357.608 669 363.617 668.643C365.661 668.584 367.687 668.243 369.638 667.63C369.488 671.701 365.436 671.776 360.259 671.232C354.744 670.631 348.16 674.72 340.394 674.514C333.491 674.327 325.612 671.588 327.132 668.362Z" fill="white" stroke="#263238" stroke-linecap="round" stroke-linejoin="round"/>
<path d="M444.519 451.775C444.519 451.775 440.58 506.625 442.962 519.925C445.344 533.225 451.216 572.824 451.216 572.824C451.216 572.824 460.107 579.315 468.98 593.646C477.853 607.978 497.305 636.66 497.305 636.66C497.305 636.66 497.999 641.781 491.846 643.488C491.846 643.488 488.77 644.857 487.063 643.488C485.356 642.119 427.036 588.188 420.152 576.933C413.267 565.677 404.113 496.421 404.113 496.421L395.24 494.714L357.724 566.409L364.252 653.561C364.252 653.561 364.758 656.563 360.5 657.782C356.242 659.001 352.809 659.433 350.258 657.238C347.707 655.043 327.954 559.6 329.623 556.186C331.293 552.772 369.147 458.941 369.147 458.941L372.205 451.1C372.205 451.1 408.052 455.189 424.091 452.113C440.129 449.037 443.168 446.598 444.519 451.775Z" fill="#263238" stroke="#263238" stroke-linecap="round" stroke-linejoin="round"/>
<path d="M395.241 494.657L375.77 488.861" stroke="white" stroke-linecap="round" stroke-linejoin="round"/>
<path d="M393.181 495.689L366.562 492.613" stroke="white" stroke-linecap="round" stroke-linejoin="round"/>
<path d="M438.402 462.393C438.402 462.393 423.997 471.584 438.402 477.719" stroke="white" stroke-linecap="round" stroke-linejoin="round"/>
<path d="M397.621 466.145L395.408 474.999L389.48 480.926L396.871 487.567" stroke="white" stroke-linecap="round" stroke-linejoin="round"/>
<path d="M482.015 361.209C468.884 350.554 452.583 337.685 452.583 337.685C452.583 337.685 418.011 336.898 405.331 337.048L387.51 393.924C387.51 393.924 371.134 450.575 371.809 452.976C372.485 455.377 384.115 460.817 410.058 463.893C436.001 466.97 446.918 456.052 447.575 452.638C447.858 449.545 447.63 446.427 446.899 443.409L455.772 427.708L485.129 379.423C486.9 376.524 487.56 373.081 486.988 369.732C486.415 366.383 484.649 363.355 482.015 361.209Z" fill="#026AA2" stroke="#263238" stroke-linecap="round" stroke-linejoin="round"/>
<path d="M471.752 352.899C461.697 344.833 452.637 337.686 452.637 337.686C452.637 337.686 441.157 337.423 429.02 337.236C425.943 344.252 420.635 358.583 425.006 365.674C430.333 374.415 447.947 377.023 471.752 352.899Z" fill="#263238" stroke="#263238" stroke-linecap="round" stroke-linejoin="round"/>
<path d="M456.127 279.196C456.127 279.196 446.242 281.935 442.134 288.069C438.026 294.203 426.095 330.069 426.433 333.089C426.77 336.11 442.134 333.089 442.134 333.089C442.134 333.089 431.554 355.281 431.554 359.033C431.554 362.784 436.337 364.848 442.471 363.478C448.605 362.109 469.558 326.093 469.558 326.093C469.558 326.093 475.768 333.296 479.688 330.82C484.19 327.987 482.764 322.285 479.35 322.285C475.936 322.285 488.898 308.291 484.471 299.08C480.044 289.87 460.236 276.138 456.127 279.196Z" fill="white" stroke="#263238" stroke-linecap="round" stroke-linejoin="round"/>
<path d="M452.377 268.298C452.377 268.298 433.262 268.298 432.23 277.508C431.198 286.719 441.122 290.827 452.039 289.12C462.957 287.413 472.861 288.088 474.23 289.795C475.6 291.502 460.912 294.916 464.326 297.299C466.311 298.724 468.712 299.45 471.154 299.362C471.154 299.362 466.371 300.713 466.708 304.127C467.046 307.541 470.028 322.623 472.336 322.623C474.643 322.623 479.276 322.323 479.276 322.323C483.598 320.149 487.523 317.263 490.888 313.787C496.009 308.329 497.36 296.717 490.888 289.908C484.416 283.098 479.276 276.477 474.155 271.018C469.034 265.559 464.251 259.763 454.009 258.393C443.767 257.024 438.383 261.113 452.377 268.298Z" fill="#263238" stroke="#263238" stroke-linecap="round" stroke-linejoin="round"/>
<path d="M492.242 303.583C492.595 305.582 492.664 307.622 492.448 309.641" stroke="white" stroke-linecap="round" stroke-linejoin="round"/>
<path d="M457.161 279.065C457.161 279.065 436.208 281.11 444.03 285.105C451.852 289.101 464.064 281.616 479.315 287.657C481.887 288.586 484.237 290.044 486.211 291.938C488.185 293.831 489.74 296.117 490.776 298.649" stroke="white" stroke-linecap="round" stroke-linejoin="round"/>
<path d="M469.883 294.972C469.883 294.972 484.196 301.969 486.09 312.137" stroke="white" stroke-linecap="round" stroke-linejoin="round"/>
<path d="M442.133 333.146C442.133 333.146 458.528 332.133 462.955 328.381" stroke="#263238" stroke-linecap="round" stroke-linejoin="round"/>
<path d="M437.012 319.489C437.012 319.489 448.961 322.903 452.375 315.738" stroke="#263238" stroke-linecap="round" stroke-linejoin="round"/>
<path d="M450.336 314.369L455.457 316.432" stroke="#263238" stroke-linecap="round" stroke-linejoin="round"/>
<path d="M440.766 303.789C440.766 303.789 430.188 305.158 430.188 306.865C430.188 308.572 437.015 313.355 437.015 313.355" fill="white"/>
<path d="M440.766 303.789C440.766 303.789 430.188 305.158 430.188 306.865C430.188 308.572 437.015 313.355 437.015 313.355" stroke="#263238" stroke-linecap="round" stroke-linejoin="round"/>
<path d="M442.115 300.505C441.628 301.987 440.634 302.981 439.883 302.737C439.133 302.494 438.945 301.106 439.452 299.624C439.958 298.142 440.934 297.148 441.684 297.392C442.434 297.636 442.622 299.042 442.115 300.505Z" fill="#263238"/>
<path d="M451.123 305.064C450.616 306.546 449.622 307.54 448.891 307.296C448.159 307.052 447.953 305.645 448.441 304.182C448.928 302.719 449.941 301.706 450.673 301.95C451.404 302.194 451.592 303.582 451.123 305.064Z" fill="#263238"/>
<path d="M451.594 295.366C451.594 295.366 456.771 295.835 456.283 302.869L451.594 295.366Z" fill="#263238" stroke="#263238" stroke-linecap="round" stroke-linejoin="round"/>
<path d="M446.896 292.084C446.896 292.084 444.064 288.332 440.312 293.49L446.896 292.084Z" fill="#263238" stroke="#263238" stroke-linecap="round" stroke-linejoin="round"/>
<path d="M352.695 167.226L303.285 105.042L253.895 167.226H273.216V260.85H333.374V167.226H352.695Z" fill="#263238" stroke="#263238" stroke-linecap="round" stroke-linejoin="round"/>
<path d="M352.695 163.193L303.285 101.008L253.895 163.193H273.216V256.817H333.374V163.193H352.695Z" fill="white" stroke="#263238" stroke-linecap="round" stroke-linejoin="round"/>
<path d="M399.648 246.256H198.727V447.179H399.648V246.256Z" fill="white" stroke="#263238" stroke-linecap="round" stroke-linejoin="round"/>
<path d="M390.305 255.598H208.066V437.838H390.305V255.598Z" fill="#263238" stroke="#263238" stroke-linecap="round" stroke-linejoin="round"/>
<path d="M348.042 316.957L305.535 361.378L272.445 352.111C270.815 351.656 269.103 351.575 267.437 351.874C265.771 352.173 264.193 352.844 262.822 353.837L208.066 393.624V437.913H390.305V344.12L364.23 316.938C363.179 315.853 361.921 314.991 360.53 314.402C359.138 313.814 357.643 313.511 356.132 313.513C354.622 313.515 353.127 313.821 351.737 314.412C350.347 315.004 349.09 315.87 348.042 316.957Z" fill="white" stroke="#263238" stroke-linecap="round" stroke-linejoin="round"/>
<path d="M296.913 313.357C301.736 301.608 296.122 288.172 284.372 283.348C272.622 278.525 259.187 284.139 254.363 295.889C249.539 307.639 255.154 321.074 266.904 325.898C278.653 330.722 292.089 325.107 296.913 313.357Z" fill="white" stroke="#263238" stroke-linecap="round" stroke-linejoin="round"/>
<path d="M456.915 369.894L406.699 421.517L330.164 442.602C330.164 442.602 323.336 434.667 318.421 434.611C313.507 434.555 297.675 440.239 297.675 440.239C297.675 440.239 295.668 445.153 299.551 445.191C303.543 444.91 307.503 444.282 311.387 443.315L289.684 447.067C289.945 448.719 290.784 450.225 292.052 451.317C293.319 452.409 294.933 453.017 296.605 453.032H306.379L323.092 455.152L338.906 450.368C338.906 450.368 413.827 442.208 417.785 441.251C421.743 440.295 485.315 385.726 485.315 385.726C485.315 385.726 492.5 379.404 489.761 372.07C487.022 364.735 473.01 359.539 473.01 359.539" fill="white"/>
<path d="M456.915 369.894L406.699 421.517L330.164 442.602C330.164 442.602 323.336 434.667 318.421 434.611C313.507 434.555 297.675 440.239 297.675 440.239C297.675 440.239 295.668 445.153 299.551 445.191C303.543 444.91 307.503 444.282 311.387 443.315L289.684 447.067C289.945 448.719 290.784 450.225 292.052 451.317C293.319 452.409 294.933 453.017 296.605 453.032H306.379L323.092 455.152L338.906 450.368C338.906 450.368 413.827 442.208 417.785 441.251C421.743 440.295 485.315 385.726 485.315 385.726C485.315 385.726 492.5 379.404 489.761 372.07C487.022 364.735 473.01 359.539 473.01 359.539" stroke="#263238" stroke-linecap="round" stroke-linejoin="round"/>
<path d="M447.86 375.278L409.574 413.677L437.993 434.18L487.365 387.677C489.775 385.421 491.34 382.407 491.801 379.138C492.262 375.869 491.59 372.541 489.898 369.706L489.729 369.444C486.188 363.829 481.181 359.289 475.247 356.313" fill="#026AA2"/>
<path d="M447.86 375.278L409.574 413.677L437.993 434.18L487.365 387.677C489.775 385.421 491.34 382.407 491.801 379.138C492.262 375.869 491.59 372.541 489.898 369.706L489.729 369.444C486.188 363.829 481.181 359.289 475.247 356.313" stroke="#263238" stroke-linecap="round" stroke-linejoin="round"/>
<path d="M438.068 434.179L444.746 427.876L416.177 407.054L409.574 413.676L438.068 434.179Z" fill="#263238" stroke="#263238" stroke-linecap="round" stroke-linejoin="round"/>
<path d="M254.828 443.39L262.05 451.193L269.047 451.962L258.186 442.658L254.828 443.39Z" fill="white" stroke="#263238" stroke-linecap="round" stroke-linejoin="round"/>
<path d="M268.418 443.39L275.64 451.193L282.618 451.962L271.757 442.658L268.418 443.39Z" fill="white" stroke="#263238" stroke-linecap="round" stroke-linejoin="round"/>
<path d="M269.051 451.963L260.891 441.495H265.937L276.029 451.963L271.752 452.751L269.051 451.963Z" fill="white" stroke="#263238" stroke-linecap="round" stroke-linejoin="round"/>
<path d="M251.98 444.215L255.469 450.799L262.053 451.193L254.832 443.39L251.98 444.215Z" fill="white" stroke="#263238" stroke-linecap="round" stroke-linejoin="round"/>
</svg>
