<svg width="21" height="20" viewBox="0 0 21 20" fill="none" xmlns="http://www.w3.org/2000/svg">
<path fill-rule="evenodd" clip-rule="evenodd" d="M9.96967 0.46967C10.2626 0.176777 10.7374 0.176777 11.0303 0.46967L15.5303 4.96967C15.8232 5.26256 15.8232 5.73744 15.5303 6.03033C15.2374 6.32322 14.7626 6.32322 14.4697 6.03033L11.25 2.81066L11.25 14.5C11.25 14.9142 10.9142 15.25 10.5 15.25C10.0858 15.25 9.75 14.9142 9.75 14.5L9.75 2.81066L6.53033 6.03033C6.23744 6.32322 5.76256 6.32322 5.46967 6.03033C5.17678 5.73744 5.17678 5.26256 5.46967 4.96967L9.96967 0.46967ZM1.5 13.75C1.91421 13.75 2.25 14.0858 2.25 14.5V16.75C2.25 17.5784 2.92157 18.25 3.75 18.25H17.25C18.0784 18.25 18.75 17.5784 18.75 16.75V14.5C18.75 14.0858 19.0858 13.75 19.5 13.75C19.9142 13.75 20.25 14.0858 20.25 14.5V16.75C20.25 18.4069 18.9069 19.75 17.25 19.75H3.75C2.09315 19.75 0.75 18.4069 0.75 16.75V14.5C0.75 14.0858 1.08579 13.75 1.5 13.75Z" fill="white"/>
</svg>
