<svg width="24" height="24" viewBox="0 0 24 24" fill="none" xmlns="http://www.w3.org/2000/svg">
<g clip-path="url(#clip0_733_9113)">
<path d="M19.5003 1.5H15.7503C15.5514 1.5 15.3606 1.57902 15.2199 1.71967C15.0793 1.86032 15.0003 2.05109 15.0003 2.25C15.0003 2.44891 15.0793 2.63968 15.2199 2.78033C15.3606 2.92098 15.5514 3 15.7503 3H17.6909L15.4034 5.2875C14.6478 4.63805 13.7504 4.17475 12.7834 3.93478C11.8164 3.69482 10.8065 3.68486 9.83494 3.90572C8.86336 4.12658 7.95707 4.5721 7.18879 5.20654C6.42052 5.84097 5.81165 6.64666 5.41104 7.55894C5.01043 8.47123 4.82923 9.46472 4.88199 10.4597C4.93475 11.4547 5.21999 12.4234 5.71483 13.2882C6.20967 14.153 6.90033 14.8898 7.7314 15.4394C8.56246 15.9891 9.51078 16.3363 10.5003 16.4531V18.375H8.25027C8.05136 18.375 7.8606 18.454 7.71994 18.5947C7.57929 18.7353 7.50027 18.9261 7.50027 19.125C7.50027 19.3239 7.57929 19.5147 7.71994 19.6553C7.8606 19.796 8.05136 19.875 8.25027 19.875H10.5003V21.75C10.5003 21.9489 10.5793 22.1397 10.7199 22.2803C10.8606 22.421 11.0514 22.5 11.2503 22.5C11.4492 22.5 11.64 22.421 11.7806 22.2803C11.9213 22.1397 12.0003 21.9489 12.0003 21.75V19.875H14.2503C14.4492 19.875 14.64 19.796 14.7806 19.6553C14.9213 19.5147 15.0003 19.3239 15.0003 19.125C15.0003 18.9261 14.9213 18.7353 14.7806 18.5947C14.64 18.454 14.4492 18.375 14.2503 18.375H12.0003V16.4531C13.1035 16.3244 14.1538 15.9092 15.0469 15.2489C15.94 14.5885 16.6448 13.706 17.0912 12.689C17.5376 11.672 17.7102 10.5558 17.5917 9.45146C17.4732 8.3471 17.0679 7.29295 16.4159 6.39375L18.7503 4.05937V6C18.7503 6.19891 18.8293 6.38968 18.9699 6.53033C19.1106 6.67098 19.3014 6.75 19.5003 6.75C19.6992 6.75 19.89 6.67098 20.0306 6.53033C20.1713 6.38968 20.2503 6.19891 20.2503 6V2.25C20.2503 2.05109 20.1713 1.86032 20.0306 1.71967C19.89 1.57902 19.6992 1.5 19.5003 1.5ZM11.2503 15C10.2861 15 9.34356 14.7141 8.54187 14.1784C7.74018 13.6427 7.11534 12.8814 6.74636 11.9906C6.37738 11.0998 6.28084 10.1196 6.46895 9.17393C6.65705 8.22828 7.12135 7.35964 7.80313 6.67785C8.48491 5.99607 9.35355 5.53177 10.2992 5.34367C11.2449 5.15557 12.2251 5.25211 13.1159 5.62109C14.0066 5.99006 14.768 6.61491 15.3037 7.4166C15.8394 8.21829 16.1253 9.16082 16.1253 10.125C16.1253 11.4179 15.6117 12.6579 14.6974 13.5721C13.7832 14.4864 12.5432 15 11.2503 15Z" fill="#808080"/>
</g>
<defs>
<clipPath id="clip0_733_9113">
<rect width="24" height="24" fill="white"/>
</clipPath>
</defs>
</svg>
