<svg width="24" height="24" viewBox="0 0 24 24" fill="none" xmlns="http://www.w3.org/2000/svg">
<path d="M20.7146 1.33341C18.2058 -0.716337 14.5091 -0.344712 12.4578 2.16554L2.4532 14.4097C0.402698 16.9184 0.774324 20.6167 3.2842 22.6668C5.79445 24.7177 9.4912 24.346 11.5421 21.8358L21.5463 9.59054C23.5968 7.08104 23.2252 3.38429 20.7146 1.33341ZM11.9609 18.4109L10.8659 19.7512C9.3862 21.5632 6.6772 21.7968 4.8142 20.2747C4.6987 20.1802 4.59145 20.08 4.48795 19.9769C4.28845 19.7313 4.61545 19.6754 4.61545 19.6754L4.6192 19.6679C5.77495 19.822 8.83607 19.9934 11.6778 18.0903L11.6823 18.1012C11.6823 18.1012 11.8379 18.0333 11.9126 18.1012C11.9876 18.1698 12.0397 18.3142 11.9609 18.4109ZM20.3407 9.04941L18.6262 11.1483C18.5939 11.1903 18.5662 11.2345 18.5321 11.2762L16.3927 13.8952L9.35995 8.34741L13.4118 3.38916C14.9752 1.47554 17.7941 1.19204 19.7069 2.75504C21.6206 4.31841 21.9037 7.13654 20.3407 9.04941Z" fill="#808080"/>
</svg>
