<svg width="82" height="82" viewBox="0 0 82 82" fill="none" xmlns="http://www.w3.org/2000/svg">
<path fill-rule="evenodd" clip-rule="evenodd" d="M0.375 41C0.375 18.5634 18.5634 0.375 41 0.375C63.4366 0.375 81.625 18.5634 81.625 41C81.625 63.4366 63.4366 81.625 41 81.625C18.5634 81.625 0.375 63.4366 0.375 41ZM56.0429 33.4414C57.0461 32.037 56.7208 30.0852 55.3164 29.0821C53.912 28.0789 51.9602 28.4042 50.9571 29.8086L37.4762 48.6818L30.7097 41.9153C29.4893 40.6949 27.5107 40.6949 26.2903 41.9153C25.0699 43.1357 25.0699 45.1143 26.2903 46.3347L35.6653 55.7097C36.3148 56.3593 37.2173 56.6901 38.1328 56.6144C39.0482 56.5386 39.884 56.0639 40.4179 55.3164L56.0429 33.4414Z" fill="#026AA2"/>
</svg>
