<svg width="21" height="21" viewBox="0 0 21 21" fill="none" xmlns="http://www.w3.org/2000/svg">
<path fill-rule="evenodd" clip-rule="evenodd" d="M14.25 6.10352e-05C10.5221 6.10352e-05 7.5 3.02214 7.5 6.75006C7.5 7.14379 7.53379 7.53022 7.59879 7.90646C7.66598 8.29533 7.56678 8.62262 7.37767 8.81173L0.87868 15.3107C0.316071 15.8733 0 16.6364 0 17.432V20.2501C0 20.6643 0.335786 21.0001 0.75 21.0001H4.5C4.91421 21.0001 5.25 20.6643 5.25 20.2501V18.7501H6.75C7.16421 18.7501 7.5 18.4143 7.5 18.0001V16.5001H9C9.19891 16.5001 9.38968 16.421 9.53033 16.2804L12.1883 13.6224C12.3774 13.4333 12.7047 13.3341 13.0936 13.4013C13.4698 13.4663 13.8563 13.5001 14.25 13.5001C17.9779 13.5001 21 10.478 21 6.75006C21 3.02214 17.9779 6.10352e-05 14.25 6.10352e-05ZM14.25 3.00006C13.8358 3.00006 13.5 3.33585 13.5 3.75006C13.5 4.16427 13.8358 4.50006 14.25 4.50006C15.4926 4.50006 16.5 5.50742 16.5 6.75006C16.5 7.16427 16.8358 7.50006 17.25 7.50006C17.6642 7.50006 18 7.16427 18 6.75006C18 4.67899 16.3211 3.00006 14.25 3.00006Z" fill="#0069AB"/>
</svg>
