<svg width="74" height="81" viewBox="0 0 74 81" fill="none" xmlns="http://www.w3.org/2000/svg">
<path d="M66.0492 5.2227C57.6867 -1.6098 45.3642 -0.371045 38.5267 7.99645L5.17798 48.8102C-1.65702 57.1727 -0.41827 69.5002 7.94798 76.334C16.3155 83.1702 28.638 81.9315 35.4742 73.564L68.8217 32.7465C75.6567 24.3815 74.418 12.059 66.0492 5.2227ZM36.8705 62.1477L33.2205 66.6152C28.288 72.6552 19.258 73.434 13.048 68.3602C12.663 68.0452 12.3055 67.7115 11.9605 67.3677C11.2955 66.549 12.3855 66.3627 12.3855 66.3627L12.398 66.3377C16.2505 66.8515 26.4542 67.4227 35.9267 61.079L35.9417 61.1152C35.9417 61.1152 36.4605 60.889 36.7092 61.1152C36.9592 61.344 37.133 61.8252 36.8705 62.1477ZM64.803 30.9427L59.088 37.939C58.9805 38.079 58.888 38.2265 58.7742 38.3652L51.643 47.0952L28.2005 28.6027L41.7067 12.0752C46.918 5.69645 56.3142 4.75145 62.6905 9.96145C69.0692 15.1727 70.013 24.5665 64.803 30.9427Z" fill="#808080"/>
</svg>
