<svg width="26" height="25" viewBox="0 0 26 25" fill="none" xmlns="http://www.w3.org/2000/svg">
<path fill-rule="evenodd" clip-rule="evenodd" d="M4.67113 24.1473C4.44665 24.1254 4.22413 24.0946 4.00456 24.0553C3.6745 23.9962 3.40112 23.7654 3.2876 23.4499C3.17408 23.1344 3.2377 22.7823 3.45446 22.5264C3.95859 21.9314 4.31568 21.2106 4.47277 20.4186C4.50134 20.2746 4.44464 20.0227 4.15463 19.7404C2.09325 17.7339 0.8125 15.0107 0.8125 12C0.8125 5.71168 6.34749 0.75 13 0.75C19.6525 0.75 25.1875 5.71168 25.1875 12C25.1875 18.2883 19.6525 23.25 13 23.25C11.9585 23.25 10.9461 23.1293 9.97896 22.9016C8.68059 23.7163 7.14412 24.1875 5.5 24.1875C5.22059 24.1875 4.94396 24.1739 4.67113 24.1473Z" fill="#026AA2"/>
</svg>
