<svg width="28" height="27" viewBox="0 0 28 27" fill="none" xmlns="http://www.w3.org/2000/svg">
<path fill-rule="evenodd" clip-rule="evenodd" d="M4.625 26.625C2.55393 26.625 0.875 24.9461 0.875 22.875L0.875 21.1605C0.875 20.085 1.60695 19.1475 2.65031 18.8867L8.17929 17.5045C9.09412 17.2757 10.0569 17.6176 10.6227 18.372L11.8355 19.989C11.9614 20.1569 12.1458 20.1934 12.2746 20.1462C16.1494 18.7269 19.2269 15.6494 20.6462 11.7746C20.6934 11.6458 20.6569 11.4614 20.489 11.3355L18.872 10.1227C18.1176 9.55693 17.7757 8.59413 18.0045 7.67929L19.3867 2.15031C19.6475 1.10694 20.585 0.374999 21.6605 0.374999L23.375 0.374999C25.4461 0.374999 27.125 2.05393 27.125 4.125L27.125 6.9375C27.125 17.8106 18.3106 26.625 7.4375 26.625L4.625 26.625Z" fill="#0069AB"/>
</svg>
