<svg width="24" height="29" viewBox="0 0 24 29" fill="none" xmlns="http://www.w3.org/2000/svg">
<path d="M12.2074 0.583984C10.7175 0.58391 9.26095 1.02566 8.02208 1.85337C6.7832 2.68109 5.8176 3.85758 5.24737 5.23409C4.67714 6.61059 4.52791 8.12527 4.81853 9.58659C5.10916 11.0479 5.8266 12.3902 6.88012 13.4438C7.93364 14.4974 9.27592 15.2149 10.7372 15.5056C12.1985 15.7963 13.7132 15.6471 15.0898 15.077C16.4663 14.5068 17.6428 13.5413 18.4706 12.3024C19.2984 11.0636 19.7402 9.60711 19.7402 8.11717C19.7402 6.11931 18.9466 4.20327 17.5339 2.79054C16.1213 1.3778 14.2053 0.584084 12.2074 0.583984ZM11.6176 7.58378H12.7757C13.2947 7.5833 13.7927 7.78902 14.1601 8.15569C14.5274 8.52236 14.7341 9.01995 14.7346 9.53899C14.7351 10.058 14.5293 10.556 14.1627 10.9234C13.796 11.2907 13.2984 11.4974 12.7794 11.4978V12.462C12.7814 12.5464 12.7666 12.6303 12.7357 12.7089C12.7048 12.7874 12.6586 12.859 12.5996 12.9194C12.5407 12.9798 12.4702 13.0278 12.3925 13.0606C12.3147 13.0934 12.2311 13.1102 12.1467 13.1102C12.0623 13.1102 11.9788 13.0934 11.901 13.0606C11.8232 13.0278 11.7528 12.9798 11.6939 12.9194C11.6349 12.859 11.5886 12.7874 11.5578 12.7089C11.5269 12.6303 11.5121 12.5464 11.5141 12.462V11.4981H10.1939C10.0261 11.4981 9.86513 11.4314 9.74646 11.3127C9.62778 11.1941 9.56111 11.0331 9.56111 10.8653C9.56111 10.6974 9.62778 10.5365 9.74646 10.4178C9.86513 10.2991 10.0261 10.2325 10.1939 10.2325H12.7757C12.8672 10.2335 12.958 10.2164 13.0428 10.1822C13.1276 10.1479 13.2048 10.0971 13.2698 10.0328C13.3349 9.96851 13.3865 9.89193 13.4218 9.80751C13.4571 9.7231 13.4752 9.63253 13.4752 9.54105C13.4752 9.44957 13.4571 9.359 13.4218 9.27458C13.3865 9.19017 13.3349 9.11359 13.2698 9.04928C13.2048 8.98497 13.1276 8.93421 13.0428 8.89994C12.958 8.86567 12.8672 8.84858 12.7757 8.84964H11.6176C11.0814 8.85082 10.566 8.64214 10.1817 8.26822C9.79738 7.8943 9.57465 7.38485 9.56114 6.84882C9.54762 6.3128 9.74439 5.79276 10.1094 5.39995C10.4743 5.00715 10.9785 4.77275 11.5141 4.74691V3.77242C11.5121 3.68805 11.5269 3.60412 11.5578 3.52557C11.5886 3.44701 11.6349 3.37543 11.6939 3.31503C11.7528 3.25463 11.8232 3.20663 11.901 3.17386C11.9788 3.14109 12.0623 3.12421 12.1467 3.12421C12.2311 3.12421 12.3147 3.14109 12.3925 3.17386C12.4702 3.20663 12.5407 3.25463 12.5996 3.31503C12.6586 3.37543 12.7048 3.44701 12.7357 3.52557C12.7666 3.60412 12.7814 3.68805 12.7794 3.77242V4.73622H14.2209C14.3887 4.73622 14.5497 4.80289 14.6683 4.92157C14.787 5.04024 14.8537 5.2012 14.8537 5.36903C14.8537 5.53686 14.787 5.69782 14.6683 5.8165C14.5497 5.93517 14.3887 6.00184 14.2209 6.00184H11.6176C11.4078 6.00184 11.2066 6.08517 11.0583 6.2335C10.91 6.38183 10.8266 6.583 10.8266 6.79277C10.8266 7.00253 10.91 7.20371 11.0583 7.35203C11.2066 7.50036 11.4078 7.58378 11.6176 7.58378Z" fill="#0069AB"/>
<path d="M4.08069 17.2207H1.00672C0.942463 17.2207 0.878835 17.2334 0.819471 17.2579C0.760108 17.2825 0.706173 17.3186 0.660748 17.364C0.615322 17.4095 0.579298 17.4634 0.554732 17.5228C0.530166 17.5822 0.517541 17.6458 0.517578 17.7101V28.2012C0.517591 28.3309 0.56913 28.4553 0.660861 28.5471C0.752591 28.6388 0.876999 28.6903 1.00672 28.6903H4.08069C4.36342 28.6903 4.63456 28.5779 4.83446 28.378C5.03437 28.178 5.14667 27.9069 5.14667 27.6241V18.2866C5.14661 18.0039 5.03428 17.7329 4.83438 17.533C4.63448 17.3331 4.36338 17.2208 4.08069 17.2207Z" fill="#0069AB"/>
<path d="M23.404 18.4527C23.2415 18.2053 23.0199 18.0022 22.7593 17.8618C22.4987 17.7214 22.2072 17.6481 21.9112 17.6485H20.7065C20.1896 17.6474 19.6841 17.8003 19.2545 18.0877C18.8249 18.3752 18.4907 18.7841 18.2945 19.2623C18.1781 19.5403 18.0158 19.7968 17.8145 20.0211C17.4723 20.5464 17.0094 20.9823 16.4643 21.2921C15.9193 21.6019 15.308 21.7767 14.6815 21.802L11.1133 21.8022C10.9454 21.8022 10.7845 21.7355 10.6658 21.6168C10.5471 21.4982 10.4804 21.3372 10.4804 21.1694C10.4804 21.0015 10.5471 20.8406 10.6658 20.7219C10.7845 20.6032 10.9454 20.5366 11.1133 20.5366H14.6646C15.1209 20.5249 15.5642 20.3822 15.9417 20.1257V20.1042C15.9429 19.7822 15.8806 19.4631 15.7582 19.1652C15.6358 18.8673 15.4558 18.5965 15.2286 18.3684C15.0013 18.1402 14.7313 17.9592 14.4339 17.8356C14.1365 17.7121 13.8176 17.6485 13.4956 17.6485H10.8771C10.3987 17.6471 9.92468 17.7404 9.48245 17.923C9.04022 18.1056 8.63849 18.3739 8.30042 18.7125L8.23358 18.7791C7.73815 19.2738 7.10198 19.6033 6.41211 19.7226V26.7124H15.9612C17.377 26.7133 18.762 26.2986 19.9444 25.5198C21.1268 24.741 22.0546 23.6323 22.6128 22.3311L23.5535 20.1416C23.6708 19.8699 23.7185 19.5731 23.6924 19.2783C23.6663 18.9834 23.5672 18.6997 23.404 18.4527Z" fill="#0069AB"/>
</svg>
