<svg width="24" height="27" viewBox="0 0 24 27" fill="none" xmlns="http://www.w3.org/2000/svg">
<path d="M15.75 0.75H8.25V3.25H15.75V0.75ZM10.75 17H13.25V9.5H10.75V17ZM20.7812 8.73125L22.5625 6.95C22.025 6.30625 21.4375 5.71875 20.7938 5.18125L19.0125 6.9625C17.0938 5.425 14.65 4.5 11.9937 4.5C5.775 4.5 0.75 9.5375 0.75 15.75C0.75 21.9625 5.775 27 11.9937 27C18.2125 27 23.25 21.9625 23.25 15.75C23.25 13.0938 22.325 10.6562 20.7812 8.73125ZM12 24.5C7.16875 24.5 3.25 20.5812 3.25 15.75C3.25 10.9187 7.16875 7 12 7C16.8312 7 20.75 10.9187 20.75 15.75C20.75 20.5812 16.8312 24.5 12 24.5Z" fill="#0069AB"/>
</svg>
