<svg width="41" height="40" viewBox="0 0 41 40" fill="none" xmlns="http://www.w3.org/2000/svg">
<g clip-path="url(#clip0_268_2778)">
<path d="M37.5111 0H3.41665C2.63352 0 1.88247 0.311096 1.32872 0.864849C0.774963 1.4186 0.463867 2.16965 0.463867 2.95278V37.0472C0.463867 37.8303 0.774963 38.5814 1.32872 39.1352C1.88247 39.6889 2.63352 40 3.41665 40H37.5111C38.2942 40 39.0453 39.6889 39.599 39.1352C40.1528 38.5814 40.4639 37.8303 40.4639 37.0472V2.95278C40.4639 2.16965 40.1528 1.4186 39.599 0.864849C39.0453 0.311096 38.2942 0 37.5111 0ZM12.3861 34.075H6.3722V14.9722H12.3861V34.075ZM9.37498 12.325C8.69281 12.3212 8.02706 12.1153 7.46176 11.7335C6.89646 11.3516 6.45693 10.8109 6.19866 10.1795C5.94039 9.54808 5.87495 8.85432 6.01059 8.18576C6.14622 7.5172 6.47687 6.90379 6.96079 6.42297C7.44471 5.94214 8.06023 5.61544 8.72964 5.4841C9.39906 5.35276 10.0924 5.42266 10.7221 5.68498C11.3519 5.9473 11.8898 6.39028 12.268 6.95802C12.6462 7.52576 12.8477 8.19282 12.8472 8.875C12.8536 9.33172 12.7681 9.78506 12.5956 10.208C12.4231 10.6309 12.1672 11.0148 11.8432 11.3368C11.5191 11.6587 11.1336 11.9121 10.7096 12.0819C10.2855 12.2517 9.83165 12.3344 9.37498 12.325ZM34.5528 34.0917H28.5416V23.6556C28.5416 20.5778 27.2333 19.6278 25.5444 19.6278C23.7611 19.6278 22.0111 20.9722 22.0111 23.7333V34.0917H15.9972V14.9861H21.7805V17.6333H21.8583C22.4389 16.4583 24.4722 14.45 27.575 14.45C30.9305 14.45 34.5555 16.4417 34.5555 22.275L34.5528 34.0917Z" fill="#0A66C2"/>
</g>
<defs>
<clipPath id="clip0_268_2778">
<rect width="40" height="40" fill="white" transform="translate(0.463867)"/>
</clipPath>
</defs>
</svg>
