<svg width="41" height="40" viewBox="0 0 41 40" fill="none" xmlns="http://www.w3.org/2000/svg">
<g clip-path="url(#clip0_268_2779)">
<path d="M20.6953 40C31.741 40 40.6953 31.0457 40.6953 20C40.6953 8.95431 31.741 0 20.6953 0C9.64962 0 0.695312 8.95431 0.695312 20C0.695312 31.0457 9.64962 40 20.6953 40Z" fill="url(#paint0_linear_268_2779)"/>
<path fill-rule="evenodd" clip-rule="evenodd" d="M9.74802 19.7889C15.5784 17.2487 19.4663 15.574 21.4116 14.7649C26.9658 12.4547 28.1199 12.0534 28.8721 12.0402C29.0376 12.0373 29.4075 12.0783 29.6471 12.2727C29.8495 12.4369 29.9051 12.6587 29.9318 12.8143C29.9584 12.97 29.9916 13.3246 29.9652 13.6017C29.6642 16.7641 28.3619 24.4386 27.6993 27.9806C27.419 29.4794 26.8669 29.9819 26.3325 30.0311C25.1711 30.138 24.2891 29.2635 23.1642 28.5261C21.404 27.3723 20.4095 26.654 18.7009 25.528C16.7263 24.2268 18.0063 23.5116 19.1317 22.3428C19.4262 22.0369 24.5435 17.3823 24.6425 16.96C24.6549 16.9072 24.6664 16.7104 24.5495 16.6065C24.4325 16.5025 24.2599 16.5381 24.1354 16.5663C23.9588 16.6064 21.1468 18.465 15.6993 22.1423C14.9011 22.6904 14.1781 22.9574 13.5303 22.9434C12.8162 22.928 11.4426 22.5397 10.4214 22.2077C9.16893 21.8006 8.17346 21.5853 8.26014 20.8939C8.30529 20.5337 8.80125 20.1654 9.74802 19.7889Z" fill="white"/>
</g>
<defs>
<linearGradient id="paint0_linear_268_2779" x1="20.6953" y1="0" x2="20.6953" y2="39.7033" gradientUnits="userSpaceOnUse">
<stop stop-color="#2AABEE"/>
<stop offset="1" stop-color="#229ED9"/>
</linearGradient>
<clipPath id="clip0_268_2779">
<rect width="40" height="40" fill="white" transform="translate(0.695312)"/>
</clipPath>
</defs>
</svg>
