<svg width="63" height="54" viewBox="0 0 63 54" fill="none" xmlns="http://www.w3.org/2000/svg">
<path d="M17.9784 49.5C16.7047 49.5 15.5189 48.7905 15.0528 47.6051C14.0505 45.0561 13.5 42.2798 13.5 39.375C13.5 34.1277 15.2962 29.3 18.3073 25.4731C18.76 24.8978 19.4237 24.5462 20.1064 24.2819C21.5249 23.7327 22.7776 22.739 23.7423 21.509C26.0618 18.5515 28.9851 16.0902 32.3266 14.3106C34.493 13.1569 36.3729 11.4428 37.2844 9.16391C37.9223 7.56929 38.25 5.8676 38.25 4.15014V2.25C38.25 1.00736 39.2574 0 40.5 0C44.2279 0 47.25 3.02208 47.25 6.75C47.25 10.2049 46.4713 13.4779 45.0799 16.4031C44.2831 18.0781 45.4009 20.25 47.2557 20.25H56.6332C59.7131 20.25 62.4699 22.332 62.796 25.3946C62.9308 26.6613 63 27.9475 63 29.25C63 37.7929 60.0244 45.6407 55.053 51.8137C53.8902 53.2575 52.0926 54 50.2387 54H38.1907C36.7397 54 35.2982 53.7661 33.9217 53.3072L24.5783 50.1928C23.2018 49.7339 21.7603 49.5 20.3093 49.5H17.9784Z" fill="white"/>
<path d="M2.49446 26.1813C0.884416 30.2668 0 34.7176 0 39.375C0 43.0352 0.546249 46.5679 1.56167 49.8959C2.33974 52.4459 4.81253 54 7.47866 54H10.202C11.5386 54 12.3641 52.5052 11.7727 51.3066C9.99743 47.7088 9 43.6584 9 39.375C9 34.2505 10.4276 29.4594 12.9069 25.3778C13.6419 24.1677 12.8221 22.5 11.4063 22.5H8.24807C5.752 22.5 3.40964 23.8591 2.49446 26.1813Z" fill="white"/>
</svg>
