<svg width="63" height="54" viewBox="0 0 63 54" fill="none" xmlns="http://www.w3.org/2000/svg">
<path d="M42.6908 4.50001L45.7942 4.50001C48.1366 8.05028 49.5 12.3034 49.5 16.875C49.5 21.4466 48.1366 25.6997 45.7942 29.25L45.3523 29.25C42.9332 29.25 40.7506 30.5875 39.2577 32.491C36.9382 35.4485 34.0149 37.9098 30.6734 39.6894C28.507 40.8431 26.6271 42.5572 25.7156 44.8361C25.0777 46.4307 24.75 48.1324 24.75 49.8499V51.75C24.75 52.9926 23.7426 54 22.5 54C18.7721 54 15.75 50.9779 15.75 47.25C15.75 43.7951 16.5287 40.5221 17.9201 37.5969C18.7169 35.9219 17.5991 33.75 15.7443 33.75L6.36682 33.75C3.28691 33.75 0.530097 31.668 0.204027 28.6054C0.069166 27.3387 -3.41592e-07 26.0524 0 24.75C2.24052e-06 16.2071 2.97564 8.35927 7.94699 2.18633C9.10981 0.742456 10.9074 -4.86218e-07 12.7613 0L24.8093 3.15979e-06C26.2603 3.54035e-06 27.7018 0.233931 29.0783 0.692778L38.4217 3.80723C39.7982 4.26608 41.2397 4.50001 42.6908 4.50001Z" fill="white"/>
<path d="M60.5055 30.0687C62.1156 25.9832 63 21.5324 63 16.875C63 13.2148 62.4538 9.68213 61.4383 6.35414C60.6603 3.80407 58.1875 2.25001 55.5213 2.25001L52.798 2.25001C51.4614 2.25001 50.6359 3.74481 51.2273 4.94341C53.0026 8.54125 54 12.5916 54 16.875C54 21.9995 52.5723 26.7906 50.0931 30.8723C49.3581 32.0823 50.1779 33.75 51.5936 33.75H54.7519C57.248 33.75 59.5904 32.3909 60.5055 30.0687Z" fill="white"/>
</svg>
