<svg width="17" height="15" viewBox="0 0 17 15" fill="none" xmlns="http://www.w3.org/2000/svg">
<path d="M8.75605 11.9861L12.5413 14.1421C13.2345 14.5372 14.0828 13.9531 13.9003 13.2144L12.897 9.1602L16.2445 6.42874C16.8556 5.93056 16.5272 4.98571 15.7246 4.92559L11.3191 4.57342L9.59519 0.742514C9.28507 0.0467663 8.22703 0.0467663 7.91691 0.742514L6.19302 4.56483L1.78754 4.917C0.984881 4.97712 0.656522 5.92197 1.26763 6.42016L4.61508 9.15161L3.61176 13.2058C3.42933 13.9445 4.27759 14.5286 4.9708 14.1335L8.75605 11.9861Z" fill="#F3FBC6"/>
<path d="M6.19302 4.56749L7.91691 0.742833C8.07197 0.394746 8.41401 0.220703 8.75605 0.220703V11.9933L4.9708 14.142C4.27759 14.5374 3.42933 13.9529 3.61176 13.2138L4.61507 9.15707L1.26763 6.42395C0.656522 5.92545 0.984881 4.98003 1.78754 4.91987L6.19302 4.56749Z" fill="#E9EF20"/>
</svg>
