<svg width="173" height="156" viewBox="0 0 173 156" fill="none" xmlns="http://www.w3.org/2000/svg">
<mask id="mask0_387_1893" style="mask-type:luminance" maskUnits="userSpaceOnUse" x="0" y="6" width="145" height="150">
<path d="M0.5 6.4743H144.616V156H0.5V6.4743Z" fill="white"/>
</mask>
<g mask="url(#mask0_387_1893)">
<path fill-rule="evenodd" clip-rule="evenodd" d="M85.0059 137.799C91.9131 135.496 111.059 128.241 112.686 121.991C106.791 113.136 98.295 120.577 87.5241 121.837C75.6511 123.244 70.775 124.134 59.7542 126.981C42.2683 131.485 0.722456 88.9339 18.2724 43.7474C25.0579 26.3138 29.934 21.1957 43.71 10.6907C45.6707 9.1873 46.6254 8.33002 47.7915 7.2872C28.6461 13.2626 9.8082 33.0825 3.48406 58.5131C-0.225846 73.4324 0.536639 87.9231 4.83603 102.382C15.5429 138.349 53.68 159.366 88.9081 155.776C95.2899 155.137 102.28 153.083 106.669 150.326C109.277 148.675 110.995 146.897 113.974 145.086C121.644 140.46 145.665 127.934 143.615 118.862C131.921 111.358 100.441 147.325 85.038 137.799H85.0059Z" fill="#0069AB"/>
</g>
<mask id="mask1_387_1893" style="mask-type:luminance" maskUnits="userSpaceOnUse" x="28" y="0" width="145" height="149">
<path d="M28.1533 -3.05176e-05H172.5V148.963H28.1533V-3.05176e-05Z" fill="white"/>
</mask>
<g mask="url(#mask1_387_1893)">
<path fill-rule="evenodd" clip-rule="evenodd" d="M87.7083 18.3801C80.8011 20.6768 61.6556 27.9382 60.0346 34.1887C65.923 43.043 74.4193 35.5961 85.1902 34.3422C97.0631 32.9283 101.946 32.0391 112.96 29.1921C130.446 24.6882 171.992 67.2389 154.442 112.432C147.752 129.68 143.056 134.734 129.004 145.488C127.044 146.985 126.089 147.843 124.923 148.886C144.068 142.91 162.912 123.09 169.23 97.6661C172.946 82.7468 172.178 68.2561 167.878 53.791C157.171 17.8299 119.066 -3.18636 83.8126 0.396316C77.4308 1.03608 70.4338 3.08972 66.0447 5.84711C63.4369 7.5041 61.7197 9.27625 58.7403 11.0868C51.0705 15.7123 27.0491 28.2453 29.1058 37.3107C40.793 44.8151 72.2728 8.8476 87.6763 18.3801H87.7083Z" fill="#0069AB"/>
</g>
<path fill-rule="evenodd" clip-rule="evenodd" d="M80.1754 109.525C80.4882 91.5904 74.5307 80.9948 62.2964 77.6721C61.6707 77.6721 61.1688 77.9891 60.517 78.7818C57.8641 83.2077 67.224 83.3662 64.0106 94.0874C60.3279 106.361 35.5138 103.329 38.2905 69.9566C40.6304 41.5518 64.0106 41.3933 68.4103 54.2018C71.565 63.3772 64.4473 65.3986 66.4744 70.2736C66.5722 70.3001 66.6635 70.3331 66.7873 70.3661C67.5043 70.6171 69.4076 71.4098 71.5976 72.4535C74.3743 74.1314 76.6491 76.5359 78.5263 79.601C82.5805 86.3718 84.4512 96.4919 84.1448 109.968C82.6718 109.783 81.3616 109.591 80.2405 109.466L80.1754 109.525Z" fill="#0069AB"/>
<path fill-rule="evenodd" clip-rule="evenodd" d="M93.0761 109.525C92.7806 91.5904 98.4083 80.9948 109.972 77.6721C110.557 77.6721 111.031 77.9891 111.653 78.7818C114.159 83.2077 105.311 83.3662 108.346 94.0874C111.825 106.361 135.235 103.329 132.643 69.9566C130.432 41.5518 108.346 41.3933 104.19 54.2018C101.21 63.3772 107.934 65.3986 106.019 70.2736C105.932 70.3001 105.84 70.3331 105.723 70.3661C105.046 70.6171 103.217 71.4098 101.185 72.4535C98.5561 74.1314 96.4072 76.5359 94.6339 79.601C90.8041 86.3718 89.037 96.4919 89.3325 109.968C90.7179 109.783 91.9555 109.591 93.0146 109.466L93.0761 109.525Z" fill="#0069AB"/>
</svg>
