<svg width="80" height="81" viewBox="0 0 80 81" fill="none" xmlns="http://www.w3.org/2000/svg">
<path d="M31.3079 70.3879V75.51V75.5203L31.3077 75.5203C31.2953 75.8211 31.1683 76.106 30.9523 76.3152C30.7363 76.5245 30.4481 76.6417 30.1477 76.6417C29.8474 76.6417 29.5591 76.5245 29.3431 76.3152C29.1272 76.106 29.0001 75.8211 28.9878 75.5203L28.9874 75.51H28.9876V70.3739C17.4014 70.2159 9.25166 67.6669 4.84482 62.7298L4.84473 62.7297C1.26456 58.7145 1.63695 54.6442 1.65762 54.4412L1.65768 54.4406C1.68757 54.1538 1.82165 53.8877 2.03475 53.6941C2.24789 53.5004 2.52496 53.3929 2.81258 53.393C2.81261 53.393 2.81264 53.393 2.81267 53.393H9.55579C8.98342 52.8033 8.51235 52.1196 8.16352 51.3697C7.72428 50.4255 7.48886 49.3979 7.47278 48.355C7.4567 47.3121 7.66033 46.2777 8.07025 45.3201C8.48017 44.3625 9.08706 43.5037 9.85083 42.8006C10.6146 42.0975 11.5178 41.5663 12.5006 41.2422C13.4835 40.9181 14.5234 40.8086 15.5514 40.921C16.5794 41.0335 17.5719 41.3652 18.463 41.8942C19.2792 42.3787 19.9933 43.0185 20.5661 43.777C22.0849 42.6237 25.1083 40.8691 29.4735 40.8691C31.9042 40.8691 38.5013 41.7282 45.5915 42.7658C52.6929 43.805 60.3186 45.028 64.8261 45.7633L31.3079 70.3879ZM31.3079 70.3879H48.686V75.51H48.6858L48.6862 75.5203C48.6986 75.8211 48.8256 76.106 49.0416 76.3152C49.2576 76.5245 49.5458 76.6417 49.8462 76.6417C50.1465 76.6417 50.4348 76.5245 50.6508 76.3152C50.8667 76.106 50.9938 75.8211 51.0061 75.5203L51.0063 75.5203V75.51V70.3802C62.5923 70.2223 70.7453 67.6796 75.1492 62.736C78.723 58.7279 78.3583 54.665 78.3364 54.4487C78.3364 54.4483 78.3363 54.4479 78.3363 54.4475L31.3079 70.3879ZM19.9706 53.3914H38.3063C38.8194 53.3914 39.312 53.1856 39.6755 52.8185C40.0391 52.4514 40.2438 51.9529 40.2438 51.4326C40.2438 50.9123 40.0391 50.4138 39.6755 50.0467C39.312 49.6796 38.8194 49.4738 38.3063 49.4738H26.7438H26.7334L26.7334 49.4736C26.4333 49.461 26.1502 49.3319 25.943 49.1138C25.7359 48.8958 25.6206 48.6059 25.6206 48.3048C25.6206 48.0037 25.7359 47.7138 25.943 47.4958C26.1502 47.2778 26.4333 47.1486 26.7334 47.136L26.7438 47.1356V47.1358H38.3062H38.3063V47.3858C39.0288 47.3853 39.738 47.582 40.3589 47.9552C40.9797 48.3283 41.4891 48.8639 41.8332 49.5054C42.1772 50.1469 42.3432 50.8704 42.3134 51.5993L19.9706 53.3914ZM19.9706 53.3914C20.8585 52.479 21.4982 51.3459 21.8218 50.1021C22.1844 48.708 22.1334 47.2384 21.6771 45.8754C22.7623 44.9858 25.4314 43.2135 29.4735 43.2135C31.8605 43.2135 38.8446 44.1398 46.1343 45.2145C53.4121 46.2875 60.9626 47.5032 64.4614 48.0743C65.1183 48.182 65.7115 48.5358 66.1225 49.0658C66.5336 49.5959 66.7322 50.2634 66.6781 50.9353C66.6239 51.6071 66.3212 52.2332 65.8309 52.689C65.3406 53.1448 64.6987 53.397 64.0332 53.3961H64.0329H42.0963L19.9706 53.3914ZM9.78758 48.2463L9.78827 47.9956H9.78724C9.83745 46.9564 10.206 45.9563 10.8447 45.1353C11.5343 44.2487 12.4988 43.6225 13.5829 43.3567C14.6669 43.0909 15.8079 43.2008 16.8228 43.6689C17.8306 44.1339 18.6562 44.9255 19.1683 45.9183C19.2023 46.0303 19.2529 46.1365 19.3183 46.2334C19.6144 46.9124 19.7581 47.6492 19.739 48.3912C19.7197 49.141 19.5345 49.8768 19.1972 50.5448C18.86 51.2128 18.3791 51.7959 17.7901 52.2517C17.201 52.7074 16.5186 53.0243 15.793 53.1792C15.0673 53.3341 14.3165 53.3232 13.5955 53.1472C12.8746 52.9713 12.2015 52.6347 11.6257 52.162C11.0498 51.6893 10.5858 51.0924 10.2677 50.4148C9.94958 49.7373 9.78551 48.9964 9.78758 48.2463ZM75.9904 55.7389C75.852 56.9449 75.3244 59.0219 73.4538 61.1364H73.4498L73.3753 61.219C70.5964 64.3025 64.2588 68.0499 49.8423 68.0499H30.1563C15.7399 68.0499 9.4022 64.3009 6.62325 61.219L6.62318 61.2189C4.68724 59.0736 4.1498 56.9583 4.00976 55.7389H75.9904Z" fill="#808080" stroke="#808080" stroke-width="0.5"/>
<path d="M5.83296 6.43843H31.8015V12.8677H21.114H21.1137C20.0685 12.8691 19.0671 13.2888 18.3287 14.0341C17.5903 14.7793 17.1751 15.7892 17.1734 16.8423V16.8427V25.8041V25.8045C17.1751 26.8574 17.5904 27.8672 18.3288 28.6122C19.0673 29.3572 20.0688 29.7766 21.1138 29.7774H21.114H24.7702V33.4875C24.7702 33.797 24.892 34.0942 25.1094 34.3138C25.3269 34.5335 25.6225 34.6573 25.9312 34.6573H54.0765C54.3852 34.6573 54.6807 34.5335 54.8983 34.3138C55.1157 34.0942 55.2374 33.797 55.2374 33.4875V29.7774H58.8937H58.8939C59.9389 29.7766 60.9404 29.3572 61.6789 28.6122C62.4173 27.8672 62.8325 26.8574 62.8343 25.8045V25.8041V16.8427V16.8423C62.8325 15.7886 62.4169 14.7782 61.6778 14.0329C60.9387 13.2875 59.9364 12.8682 58.8907 12.8677H58.8906H48.2031V6.43843H74.1669C74.3218 6.44416 74.4762 6.4186 74.621 6.36327C74.7676 6.30728 74.9013 6.22201 75.0141 6.1127C75.1269 6.0034 75.2166 5.87234 75.2778 5.72745L75.0475 5.63019L75.2778 5.72744C75.339 5.58255 75.3705 5.42676 75.3705 5.26941C75.3705 5.11206 75.339 4.95627 75.2778 4.81139L75.2778 4.81137C75.2166 4.66649 75.1269 4.53543 75.0141 4.42613C74.9013 4.31682 74.7676 4.23155 74.621 4.17556C74.4762 4.12023 74.3218 4.09466 74.1669 4.1004H5.83296C5.6781 4.09466 5.5237 4.12023 5.37884 4.17556C5.23225 4.23155 5.09856 4.31682 4.98573 4.42612C4.8729 4.53542 4.78327 4.66649 4.72208 4.81138C4.6609 4.95627 4.62939 5.11206 4.62939 5.26941C4.62939 5.42677 4.6609 5.58256 4.72208 5.72744C4.78327 5.87233 4.8729 6.0034 4.98573 6.1127C5.09856 6.22201 5.23225 6.30728 5.37884 6.36327C5.5237 6.4186 5.6781 6.44416 5.83296 6.43843ZM21.1093 15.2073H47.039H47.0468H58.8906C59.3207 15.2073 59.7338 15.3799 60.0387 15.6878C60.3438 15.9957 60.5156 16.414 60.5156 16.8506L60.5156 25.8109C60.5156 25.8112 60.5156 25.8115 60.5156 25.8118C60.5135 26.2469 60.341 26.663 60.0364 26.9693C59.7316 27.2757 59.3196 27.4473 58.8906 27.4473H21.1093C20.6803 27.4473 20.2682 27.2757 19.9635 26.9693C19.6588 26.6629 19.4862 26.2466 19.4843 25.8114V16.8506C19.4843 16.414 19.6561 15.9957 19.9611 15.6878C20.266 15.3799 20.6791 15.2073 21.1093 15.2073ZM52.9161 29.7774L52.9213 32.3177H27.0843V29.7774H52.9161ZM34.1218 6.43843H45.8781V12.8677H34.1218V6.43843Z" fill="#808080" stroke="#808080" stroke-width="0.5"/>
<path d="M24.1314 20.6769C25.0603 20.4757 25.6518 19.5521 25.4525 18.6141C25.2532 17.6761 24.3385 17.0789 23.4096 17.2801C22.4806 17.4814 21.8891 18.4049 22.0884 19.3429C22.2878 20.2809 23.2024 20.8782 24.1314 20.6769Z" fill="#808080"/>
</svg>
