<svg width="18" height="18" viewBox="0 0 18 18" fill="none" xmlns="http://www.w3.org/2000/svg">
<path d="M5.5 5H5C3.11438 5 2.17157 5 1.58579 5.58579C1 6.17157 1 7.11438 1 9V12.5C1 14.3856 1 15.3284 1.58579 15.9142C2.17157 16.5 3.11438 16.5 5 16.5H13C14.8856 16.5 15.8284 16.5 16.4142 15.9142C17 15.3284 17 14.3856 17 12.5V9C17 7.11438 17 6.17157 16.4142 5.58579C15.8284 5 14.8856 5 13 5H12.5M5.5 5V4.5C5.5 3.08579 5.5 2.37868 5.93934 1.93934C6.37868 1.5 7.08579 1.5 8.5 1.5H9.5C10.9142 1.5 11.6213 1.5 12.0607 1.93934C12.5 2.37868 12.5 3.08579 12.5 4.5V5M5.5 5H12.5" stroke="#808080" stroke-width="1.5"/>
</svg>
