<svg width="20" height="20" viewBox="0 0 20 20" fill="none" xmlns="http://www.w3.org/2000/svg">
<path opacity="0.3" d="M10 2C5.59 2 2 5.59 2 10C2 14.41 5.59 18 10 18C14.41 18 18 14.41 18 10C18 5.59 14.41 2 10 2ZM9 14H7V6H9V14ZM13 14H11V6H13V14Z" fill="#026AA2"/>
<path d="M13 6H11V14H13V6Z" fill="#026AA2"/>
<path d="M9 6H7V14H9V6Z" fill="#026AA2"/>
<path d="M10 0C4.48 0 0 4.48 0 10C0 15.52 4.48 20 10 20C15.52 20 20 15.52 20 10C20 4.48 15.52 0 10 0ZM10 18C5.59 18 2 14.41 2 10C2 5.59 5.59 2 10 2C14.41 2 18 5.59 18 10C18 14.41 14.41 18 10 18Z" fill="#026AA2"/>
</svg>
