<svg width="21" height="22" viewBox="0 0 21 22" fill="none" xmlns="http://www.w3.org/2000/svg">
<path d="M15.2828 12.0929C15.6671 12.7831 16.404 13.25 17.25 13.25C18.4926 13.25 19.5 12.2426 19.5 11C19.5 9.75736 18.4926 8.75 17.25 8.75C16.404 8.75 15.6671 9.21691 15.2828 9.9071M15.2828 12.0929C15.1026 11.7693 15 11.3966 15 11C15 10.6034 15.1026 10.2307 15.2828 9.9071M15.2828 12.0929L5.71721 17.4071M15.2828 9.9071L5.71721 4.59289M5.71721 4.59289C5.89737 4.26931 6 3.89664 6 3.5C6 2.25736 4.99264 1.25 3.75 1.25C2.50736 1.25 1.5 2.25736 1.5 3.5C1.5 4.74264 2.50736 5.75 3.75 5.75C4.596 5.75 5.33295 5.28309 5.71721 4.59289ZM5.71721 17.4071C5.33295 16.7169 4.596 16.25 3.75 16.25C2.50736 16.25 1.5 17.2574 1.5 18.5C1.5 19.7426 2.50736 20.75 3.75 20.75C4.99264 20.75 6 19.7426 6 18.5C6 18.1034 5.89737 17.7307 5.71721 17.4071Z" stroke="#0069AB" stroke-width="1.5" stroke-linecap="round" stroke-linejoin="round"/>
</svg>
