<svg width="167" height="60" viewBox="0 0 167 60" fill="none" xmlns="http://www.w3.org/2000/svg">
<path d="M29.12 45V41.68H33.4V45H29.12ZM13.84 45C11.1467 45 8.89333 44.68 7.08 44.04C5.26667 43.3733 3.89333 42.3867 2.96 41.08C2.05333 39.7733 1.6 38.1067 1.6 36.08C1.6 35.44 1.64 34.76 1.72 34.04C1.82667 33.2933 1.93333 32.5733 2.04 31.88C2.17333 31.1867 2.29333 30.5867 2.4 30.08C2.50667 29.5733 2.58667 29.2133 2.64 29L6.28 29.68C6.2 30.1067 6.08 30.68 5.92 31.4C5.78667 32.12 5.65333 32.8933 5.52 33.72C5.38667 34.5467 5.32 35.3333 5.32 36.08C5.32 37.0667 5.48 37.92 5.8 38.64C6.12 39.36 6.61333 39.9467 7.28 40.4C7.97333 40.8533 8.85333 41.1867 9.92 41.4C11.0133 41.5867 12.3467 41.68 13.92 41.68H27.28L25.36 43.2V16.44H29.12V45H13.84ZM33.4 45V41.68C33.56 41.68 33.6933 41.72 33.8 41.8C33.9067 41.88 33.9867 41.9867 34.04 42.12C34.0933 42.2533 34.1333 42.4267 34.16 42.64C34.1867 42.8267 34.2 43.0533 34.2 43.32C34.2 43.56 34.1867 43.7867 34.16 44C34.1333 44.2133 34.0933 44.4 34.04 44.56C33.9867 44.6933 33.9067 44.8 33.8 44.88C33.6933 44.96 33.56 45 33.4 45ZM13.36 30.8C12.9067 30.24 12.56 29.7067 12.32 29.2C12.08 28.6667 11.96 28.1067 11.96 27.52C11.96 26.72 12.16 26 12.56 25.36C12.9867 24.72 13.5333 24.2133 14.2 23.84C14.8933 23.4667 15.6267 23.28 16.4 23.28C16.8533 23.28 17.3067 23.3467 17.76 23.48C18.2133 23.6133 18.6133 23.7867 18.96 24L17.84 25.96C17.6267 25.8267 17.4133 25.7467 17.2 25.72C16.9867 25.6667 16.7733 25.64 16.56 25.64C15.92 25.64 15.4267 25.8133 15.08 26.16C14.7333 26.5067 14.56 26.96 14.56 27.52C14.56 27.8667 14.6267 28.2 14.76 28.52C14.8933 28.8133 15.1067 29.1467 15.4 29.52L13.36 30.8ZM11.16 30.88V28.56H19.52V30.88H11.16ZM35.6828 50.24V48.72H43.8428V50.24H35.6828ZM41.9984 45V41.68H46.5184V45H41.9984ZM46.5184 45V41.68C46.6784 41.68 46.8118 41.72 46.9184 41.8C47.0251 41.88 47.1051 41.9867 47.1584 42.12C47.2118 42.2533 47.2518 42.4267 47.2784 42.64C47.3051 42.8267 47.3184 43.0533 47.3184 43.32C47.3184 43.56 47.3051 43.7867 47.2784 44C47.2518 44.2133 47.2118 44.4 47.1584 44.56C47.1051 44.6933 47.0251 44.8 46.9184 44.88C46.8118 44.96 46.6784 45 46.5184 45ZM33.3984 45C33.2384 45 33.1051 44.96 32.9984 44.88C32.8918 44.8 32.8118 44.6933 32.7584 44.56C32.7051 44.4 32.6651 44.2133 32.6384 44C32.6118 43.7867 32.5984 43.56 32.5984 43.32C32.5984 42.9733 32.6251 42.68 32.6784 42.44C32.7051 42.2 32.7851 42.0133 32.9184 41.88C33.0251 41.7467 33.1851 41.68 33.3984 41.68V45ZM33.3984 45V41.68H40.1984L38.2784 43.2V24.96H41.9984V45H33.3984ZM35.3184 21.36V17.48H38.9984V21.36H35.3184ZM41.2784 21.36V17.48H44.9584V21.36H41.2784ZM55.3166 20.92C54.4099 20.92 53.7166 20.5867 53.2366 19.92C52.7832 19.2267 52.5566 18.28 52.5566 17.08V15.84H54.0766V17.08C54.0766 17.9333 54.1832 18.5333 54.3966 18.88C54.6099 19.2 54.9166 19.36 55.3166 19.36C55.9032 19.36 56.2899 19.0267 56.4766 18.36C56.6899 17.6667 56.6632 16.56 56.3966 15.04L57.9166 14.76C58.2632 16.6533 58.2232 18.16 57.7966 19.28C57.3966 20.3733 56.5699 20.92 55.3166 20.92ZM51.3166 20.92C50.0632 20.92 49.2232 20.3733 48.7966 19.28C48.3966 18.16 48.3699 16.6533 48.7166 14.76L50.2366 15.04C49.9699 16.56 49.9299 17.6667 50.1166 18.36C50.3299 19.0267 50.7299 19.36 51.3166 19.36C51.7166 19.36 52.0232 19.2 52.2366 18.88C52.4499 18.5333 52.5566 17.9333 52.5566 17.08V15.84H54.0766V17.08C54.0766 18.28 53.8366 19.2267 53.3566 19.92C52.9032 20.5867 52.2232 20.92 51.3166 20.92ZM55.1234 45V41.68H59.6434V45H55.1234ZM59.6434 45V41.68C59.8034 41.68 59.9368 41.72 60.0434 41.8C60.1501 41.88 60.2301 41.9867 60.2834 42.12C60.3368 42.2533 60.3768 42.4267 60.4034 42.64C60.4301 42.8267 60.4434 43.0533 60.4434 43.32C60.4434 43.56 60.4301 43.7867 60.4034 44C60.3768 44.2133 60.3368 44.4 60.2834 44.56C60.2301 44.6933 60.1501 44.8 60.0434 44.88C59.9368 44.96 59.8034 45 59.6434 45ZM46.5234 45C46.3634 45 46.2301 44.96 46.1234 44.88C46.0168 44.8 45.9368 44.6933 45.8834 44.56C45.8301 44.4 45.7901 44.2133 45.7634 44C45.7368 43.7867 45.7234 43.56 45.7234 43.32C45.7234 42.9733 45.7501 42.68 45.8034 42.44C45.8301 42.2 45.9101 42.0133 46.0434 41.88C46.1501 41.7467 46.3101 41.68 46.5234 41.68V45ZM46.5234 45V41.68H53.3234L51.4034 43.2V24.96H55.1234V45H46.5234ZM48.0834 52.56V48.68H51.7634V52.56H48.0834ZM54.0434 52.56V48.68H57.7234V52.56H54.0434ZM68.1284 45V41.68H72.4484V45H68.1284ZM59.6484 45C59.4884 45 59.3551 44.96 59.2484 44.88C59.1418 44.8 59.0618 44.6933 59.0084 44.56C58.9551 44.4 58.9151 44.2133 58.8884 44C58.8618 43.7867 58.8484 43.56 58.8484 43.32C58.8484 42.9733 58.8751 42.68 58.9284 42.44C58.9551 42.2 59.0351 42.0133 59.1684 41.88C59.2751 41.7467 59.4351 41.68 59.6484 41.68V45ZM64.4084 45V16.44H68.1284V45H64.4084ZM59.6484 45V41.68H64.4084V45H59.6484ZM72.4484 45V41.68C72.5818 41.68 72.7018 41.72 72.8084 41.8C72.9151 41.88 72.9951 41.9867 73.0484 42.12C73.1018 42.2533 73.1418 42.4267 73.1684 42.64C73.2218 42.8267 73.2484 43.0533 73.2484 43.32C73.2484 43.56 73.2218 43.7867 73.1684 44C73.1418 44.2133 73.1018 44.4 73.0484 44.56C72.9951 44.6933 72.9151 44.8 72.8084 44.88C72.7018 44.96 72.5818 45 72.4484 45ZM72.4609 45V41.68H92.4609L91.1809 42.8V36.12C91.1809 34.7067 90.9943 33.5467 90.6209 32.64C90.2743 31.7067 89.7409 31.0267 89.0209 30.6C88.3009 30.1467 87.4076 29.92 86.3409 29.92H77.5809L75.0209 26.12L76.8609 22.64C77.1543 22.1067 77.4609 21.5467 77.7809 20.96C78.1276 20.3467 78.5409 19.6533 79.0209 18.88C79.5276 18.08 80.1676 17.12 80.9409 16L84.0609 17.8C83.3143 18.9467 82.7009 19.8933 82.2209 20.64C81.7676 21.3867 81.3809 22.04 81.0609 22.6C80.7409 23.1333 80.4343 23.6667 80.1409 24.2L78.2609 27.8L77.4609 26.6H86.3409C88.0209 26.6 89.4209 26.8933 90.5409 27.48C91.6609 28.04 92.5276 28.7867 93.1409 29.72C93.7809 30.6533 94.2343 31.6933 94.5009 32.84C94.7943 33.96 94.9409 35.0533 94.9409 36.12V45H72.4609ZM72.4609 45C72.3009 45 72.1676 44.96 72.0609 44.88C71.9543 44.8 71.8743 44.6933 71.8209 44.56C71.7676 44.4 71.7276 44.2133 71.7009 44C71.6743 43.7867 71.6609 43.56 71.6609 43.32C71.6609 42.9733 71.6876 42.68 71.7409 42.44C71.7676 42.2 71.8476 42.0133 71.9809 41.88C72.0876 41.7467 72.2476 41.68 72.4609 41.68V45Z" fill="#026AA2"/>
<mask id="mask0_515_3817" style="mask-type:luminance" maskUnits="userSpaceOnUse" x="114" y="7" width="45" height="47">
<path d="M114 7.99207H158.408V53.9999H114V7.99207Z" fill="white"/>
</mask>
<g mask="url(#mask0_515_3817)">
<path fill-rule="evenodd" clip-rule="evenodd" d="M140.04 48.3996C142.169 47.691 148.068 45.4587 148.57 43.5355C146.753 40.8111 144.135 43.1004 140.816 43.4882C137.158 43.9213 135.655 44.1949 132.259 45.0709C126.871 46.4567 114.069 33.3642 119.477 19.4607C121.568 14.0965 123.07 12.5217 127.315 9.28943C127.919 8.82683 128.213 8.56305 128.573 8.24219C122.673 10.0808 116.869 16.1792 114.92 24.004C113.777 28.5945 114.012 33.0532 115.336 37.502C118.636 48.5689 130.387 55.0354 141.243 53.9311C143.209 53.7343 145.363 53.1024 146.716 52.254C147.519 51.7461 148.048 51.1988 148.966 50.6418C151.33 49.2185 158.732 45.3642 158.1 42.5729C154.497 40.2638 144.796 51.3307 140.05 48.3996H140.04Z" fill="#0069AB"/>
</g>
<mask id="mask1_515_3817" style="mask-type:luminance" maskUnits="userSpaceOnUse" x="122" y="6" width="46" height="46">
<path d="M122.521 6H167.001V51.8346H122.521V6Z" fill="white"/>
</mask>
<g mask="url(#mask1_515_3817)">
<path fill-rule="evenodd" clip-rule="evenodd" d="M140.872 11.6554C138.744 12.3621 132.844 14.5964 132.345 16.5196C134.159 19.244 136.777 16.9527 140.096 16.5668C143.755 16.1318 145.259 15.8582 148.653 14.9822C154.041 13.5964 166.843 26.6889 161.436 40.5944C159.374 45.9014 157.927 47.4566 153.597 50.7656C152.993 51.2262 152.699 51.49 152.339 51.8109C158.239 49.9723 164.046 43.8739 165.993 36.0511C167.138 31.4605 166.901 27.0019 165.576 22.5511C162.277 11.4861 150.535 5.01959 139.672 6.12195C137.705 6.3188 135.549 6.95069 134.197 7.79912C133.393 8.30896 132.864 8.85423 131.946 9.41132C129.582 10.8345 122.18 14.6908 122.814 17.4802C126.416 19.7893 136.116 8.72234 140.862 11.6554H140.872Z" fill="#0069AB"/>
</g>
<path fill-rule="evenodd" clip-rule="evenodd" d="M138.551 39.7C138.647 34.1816 136.811 30.9214 133.042 29.8991C132.849 29.8991 132.694 29.9966 132.493 30.2405C131.676 31.6023 134.56 31.6511 133.57 34.9499C132.435 38.7264 124.789 37.7934 125.644 27.5251C126.365 18.7852 133.57 18.7364 134.925 22.6775C135.898 25.5007 133.704 26.1226 134.329 27.6226C134.359 27.6308 134.387 27.6409 134.425 27.6511C134.646 27.7283 135.233 27.9722 135.908 28.2934C136.763 28.8096 137.464 29.5495 138.043 30.4926C139.292 32.5759 139.868 35.6898 139.774 39.8361C139.32 39.7792 138.916 39.7203 138.571 39.6817L138.551 39.7Z" fill="#0069AB"/>
<path fill-rule="evenodd" clip-rule="evenodd" d="M142.527 39.7C142.436 34.1816 144.17 30.9214 147.733 29.8991C147.914 29.8991 148.06 29.9966 148.251 30.2405C149.024 31.6023 146.297 31.6511 147.232 34.9499C148.304 38.7264 155.518 37.7934 154.719 27.5251C154.038 18.7852 147.232 18.7364 145.952 22.6775C145.033 25.5007 147.105 26.1226 146.515 27.6226C146.489 27.6308 146.46 27.6409 146.424 27.6511C146.215 27.7283 145.652 27.9722 145.026 28.2934C144.216 28.8096 143.554 29.5495 143.007 30.4926C141.827 32.5759 141.282 35.6898 141.374 39.8361C141.8 39.7792 142.182 39.7203 142.508 39.6817L142.527 39.7Z" fill="#0069AB"/>
</svg>
