<svg width="30" height="30" viewBox="0 0 30 30" fill="none" xmlns="http://www.w3.org/2000/svg">
<g clip-path="url(#clip0_326_26880)">
<path d="M29.7083 15.3456C29.7083 14.3259 29.6256 13.3007 29.4493 12.2976H15.3008V18.0738H23.4029C23.0667 19.9368 21.9864 21.5848 20.4046 22.632V26.3799H25.2383C28.0768 23.7674 29.7083 19.9092 29.7083 15.3456Z" fill="#4285F4"/>
<path d="M15.3009 30.001C19.3464 30.001 22.7581 28.6727 25.2439 26.3799L20.4102 22.6319C19.0653 23.5469 17.3292 24.065 15.3064 24.065C11.3931 24.065 8.07506 21.4249 6.88454 17.8754H1.89648V21.739C4.44287 26.8043 9.62935 30.001 15.3009 30.001Z" fill="#34A853"/>
<path d="M6.87895 17.8753C6.25063 16.0124 6.25063 13.9951 6.87895 12.1322V8.26849H1.89641C-0.231095 12.507 -0.231095 17.5005 1.89641 21.739L6.87895 17.8753Z" fill="#FBBC04"/>
<path d="M15.3009 5.93708C17.4394 5.90401 19.5063 6.70871 21.055 8.18583L25.3376 3.90327C22.6259 1.35688 19.0267 -0.0430825 15.3009 0.00101083C9.62935 0.00101083 4.44287 3.19778 1.89648 8.26851L6.87903 12.1322C8.06404 8.57716 11.3876 5.93708 15.3009 5.93708Z" fill="#EA4335"/>
</g>
<defs>
<clipPath id="clip0_326_26880">
<rect width="30" height="30" fill="white"/>
</clipPath>
</defs>
</svg>
